<?xml version="1.0" encoding="UTF-8" standalone="no"?>
<!DOCTYPE svg PUBLIC "-//W3C//DTD SVG 1.1//EN"
 "http://www.w3.org/Graphics/SVG/1.1/DTD/svg11.dtd">
<!-- Generated by graphviz version 2.46.0 (20210119.1425)
 -->
<!-- Title: dependencies Pages: 1 -->
<svg width="1478pt" height="211pt"
 viewBox="0.00 0.00 1478.00 211.00" xmlns="http://www.w3.org/2000/svg" xmlns:xlink="http://www.w3.org/1999/xlink">
<g id="graph0" class="graph" transform="scale(1 1) rotate(0) translate(4 207)">
<title>dependencies</title>
<polygon fill="white" stroke="transparent" points="-4,4 -4,-207 1474,-207 1474,4 -4,4"/>
<text text-anchor="start" x="714.01" y="-42.4" font-family="sans-serif" font-weight="bold" font-size="14.00">Legend</text>
<polygon fill="#ffffb3" stroke="transparent" points="501,-10 501,-30 521,-30 521,-10 501,-10"/>
<text text-anchor="start" x="524.63" y="-15.4" font-family="sans-serif" font-size="14.00"> &#160;Declarations</text>
<polygon fill="#8dd3c7" stroke="transparent" points="614,-10 614,-30 634,-30 634,-10 614,-10"/>
<text text-anchor="start" x="637.73" y="-15.4" font-family="sans-serif" font-size="14.00"> &#160;Module</text>
<polygon fill="#80b1d3" stroke="transparent" points="700,-10 700,-30 720,-30 720,-10 700,-10"/>
<text text-anchor="start" x="723.78" y="-15.4" font-family="sans-serif" font-size="14.00"> &#160;Bootstrap</text>
<polygon fill="#fdb462" stroke="transparent" points="797,-10 797,-30 817,-30 817,-10 797,-10"/>
<text text-anchor="start" x="820.67" y="-15.4" font-family="sans-serif" font-size="14.00"> &#160;Providers</text>
<polygon fill="#fb8072" stroke="transparent" points="893,-10 893,-30 913,-30 913,-10 893,-10"/>
<text text-anchor="start" x="916.73" y="-15.4" font-family="sans-serif" font-size="14.00"> &#160;Exports</text>
<g id="clust1" class="cluster">
<title>cluster_TblStudyModule</title>
<polygon fill="none" stroke="black" stroke-dasharray="1,5" points="8,-70 8,-195 1462,-195 1462,-70 8,-70"/>
</g>
<g id="clust9" class="cluster">
<title>cluster_TblStudyModule_imports</title>
<polygon fill="none" stroke="black" points="1028,-78 1028,-130 1454,-130 1454,-78 1028,-78"/>
</g>
<g id="clust2" class="cluster">
<title>cluster_TblStudyModule_declarations</title>
<polygon fill="none" stroke="black" points="16,-78 16,-130 1020,-130 1020,-78 16,-78"/>
</g>
<!-- AssumptionsComponent -->
<g id="node1" class="node">
<title>AssumptionsComponent</title>
<polygon fill="#ffffb3" stroke="black" points="1012.45,-122 857.55,-122 857.55,-86 1012.45,-86 1012.45,-122"/>
<text text-anchor="middle" x="935" y="-99.8" font-family="Times,serif" font-size="14.00">AssumptionsComponent</text>
</g>
<!-- TblStudyModule -->
<g id="node7" class="node">
<title>TblStudyModule</title>
<polygon fill="#8dd3c7" stroke="black" points="834.67,-187 831.67,-191 810.67,-191 807.67,-187 723.33,-187 723.33,-151 834.67,-151 834.67,-187"/>
<text text-anchor="middle" x="779" y="-164.8" font-family="Times,serif" font-size="14.00">TblStudyModule</text>
</g>
<!-- AssumptionsComponent&#45;&gt;TblStudyModule -->
<g id="edge1" class="edge">
<title>AssumptionsComponent&#45;&gt;TblStudyModule</title>
<path fill="none" stroke="black" d="M935,-122.01C935,-138.05 935,-159 935,-159 935,-159 844.88,-159 844.88,-159"/>
<polygon fill="black" stroke="black" points="844.88,-155.5 834.88,-159 844.88,-162.5 844.88,-155.5"/>
</g>
<!-- DetailsComponent -->
<g id="node2" class="node">
<title>DetailsComponent</title>
<polygon fill="#ffffb3" stroke="black" points="839.48,-122 718.52,-122 718.52,-86 839.48,-86 839.48,-122"/>
<text text-anchor="middle" x="779" y="-99.8" font-family="Times,serif" font-size="14.00">DetailsComponent</text>
</g>
<!-- DetailsComponent&#45;&gt;TblStudyModule -->
<g id="edge2" class="edge">
<title>DetailsComponent&#45;&gt;TblStudyModule</title>
<path fill="none" stroke="black" d="M779,-122.11C779,-122.11 779,-140.99 779,-140.99"/>
<polygon fill="black" stroke="black" points="775.5,-140.99 779,-150.99 782.5,-140.99 775.5,-140.99"/>
</g>
<!-- StudyComponent -->
<g id="node3" class="node">
<title>StudyComponent</title>
<polygon fill="#ffffb3" stroke="black" points="701.01,-122 586.99,-122 586.99,-86 701.01,-86 701.01,-122"/>
<text text-anchor="middle" x="644" y="-99.8" font-family="Times,serif" font-size="14.00">StudyComponent</text>
</g>
<!-- StudyComponent&#45;&gt;TblStudyModule -->
<g id="edge3" class="edge">
<title>StudyComponent&#45;&gt;TblStudyModule</title>
<path fill="none" stroke="black" d="M644,-122.01C644,-138.05 644,-159 644,-159 644,-159 713.31,-159 713.31,-159"/>
<polygon fill="black" stroke="black" points="713.31,-162.5 723.31,-159 713.31,-155.5 713.31,-162.5"/>
</g>
<!-- TblStudyEditComponent -->
<g id="node4" class="node">
<title>TblStudyEditComponent</title>
<polygon fill="#ffffb3" stroke="black" points="569.28,-122 412.72,-122 412.72,-86 569.28,-86 569.28,-122"/>
<text text-anchor="middle" x="491" y="-99.8" font-family="Times,serif" font-size="14.00">TblStudyEditComponent</text>
</g>
<!-- TblStudyEditComponent&#45;&gt;TblStudyModule -->
<g id="edge4" class="edge">
<title>TblStudyEditComponent&#45;&gt;TblStudyModule</title>
<path fill="none" stroke="black" d="M491,-122.27C491,-140.56 491,-166 491,-166 491,-166 713.13,-166 713.13,-166"/>
<polygon fill="black" stroke="black" points="713.13,-169.5 723.13,-166 713.13,-162.5 713.13,-169.5"/>
</g>
<!-- TblStudyListCachedComponent -->
<g id="node5" class="node">
<title>TblStudyListCachedComponent</title>
<polygon fill="#ffffb3" stroke="black" points="394.71,-122 197.29,-122 197.29,-86 394.71,-86 394.71,-122"/>
<text text-anchor="middle" x="296" y="-99.8" font-family="Times,serif" font-size="14.00">TblStudyListCachedComponent</text>
</g>
<!-- TblStudyListCachedComponent&#45;&gt;TblStudyModule -->
<g id="edge5" class="edge">
<title>TblStudyListCachedComponent&#45;&gt;TblStudyModule</title>
<path fill="none" stroke="black" d="M296,-122.13C296,-142.57 296,-173 296,-173 296,-173 713.12,-173 713.12,-173"/>
<polygon fill="black" stroke="black" points="713.12,-176.5 723.12,-173 713.12,-169.5 713.12,-176.5"/>
</g>
<!-- TblStudyListComponent -->
<g id="node6" class="node">
<title>TblStudyListComponent</title>
<polygon fill="#ffffb3" stroke="black" points="179.73,-122 24.27,-122 24.27,-86 179.73,-86 179.73,-122"/>
<text text-anchor="middle" x="102" y="-99.8" font-family="Times,serif" font-size="14.00">TblStudyListComponent</text>
</g>
<!-- TblStudyListComponent&#45;&gt;TblStudyModule -->
<g id="edge6" class="edge">
<title>TblStudyListComponent&#45;&gt;TblStudyModule</title>
<path fill="none" stroke="black" d="M102,-122.01C102,-144.49 102,-180 102,-180 102,-180 713.31,-180 713.31,-180"/>
<polygon fill="black" stroke="black" points="713.31,-183.5 723.31,-180 713.31,-176.5 713.31,-183.5"/>
</g>
<!-- SharedCompsModule -->
<g id="node8" class="node">
<title>SharedCompsModule</title>
<polygon fill="#8dd3c7" stroke="black" points="1446.09,-122 1443.09,-126 1422.09,-126 1419.09,-122 1307.91,-122 1307.91,-86 1446.09,-86 1446.09,-122"/>
<text text-anchor="middle" x="1377" y="-99.8" font-family="Times,serif" font-size="14.00">SharedCompsModule</text>
</g>
<!-- SharedCompsModule&#45;&gt;TblStudyModule -->
<g id="edge7" class="edge">
<title>SharedCompsModule&#45;&gt;TblStudyModule</title>
<path fill="none" stroke="black" d="M1377,-122.01C1377,-144.49 1377,-180 1377,-180 1377,-180 844.72,-180 844.72,-180"/>
<polygon fill="black" stroke="black" points="844.72,-176.5 834.72,-180 844.72,-183.5 844.72,-176.5"/>
</g>
<!-- SharedModule -->
<g id="node9" class="node">
<title>SharedModule</title>
<polygon fill="#8dd3c7" stroke="black" points="1290.42,-122 1287.42,-126 1266.42,-126 1263.42,-122 1191.58,-122 1191.58,-86 1290.42,-86 1290.42,-122"/>
<text text-anchor="middle" x="1241" y="-99.8" font-family="Times,serif" font-size="14.00">SharedModule</text>
</g>
<!-- SharedModule&#45;&gt;TblStudyModule -->
<g id="edge8" class="edge">
<title>SharedModule&#45;&gt;TblStudyModule</title>
<path fill="none" stroke="black" d="M1241,-122.13C1241,-142.57 1241,-173 1241,-173 1241,-173 844.73,-173 844.73,-173"/>
<polygon fill="black" stroke="black" points="844.73,-169.5 834.73,-173 844.73,-176.5 844.73,-169.5"/>
</g>
<!-- StudyRoutingModule -->
<g id="node10" class="node">
<title>StudyRoutingModule</title>
<polygon fill="#8dd3c7" stroke="black" points="1173.84,-122 1170.84,-126 1149.84,-126 1146.84,-122 1036.16,-122 1036.16,-86 1173.84,-86 1173.84,-122"/>
<text text-anchor="middle" x="1105" y="-99.8" font-family="Times,serif" font-size="14.00">StudyRoutingModule</text>
</g>
<!-- StudyRoutingModule&#45;&gt;TblStudyModule -->
<g id="edge9" class="edge">
<title>StudyRoutingModule&#45;&gt;TblStudyModule</title>
<path fill="none" stroke="black" d="M1105,-122.27C1105,-140.56 1105,-166 1105,-166 1105,-166 844.67,-166 844.67,-166"/>
<polygon fill="black" stroke="black" points="844.67,-162.5 834.67,-166 844.67,-169.5 844.67,-162.5"/>
</g>
</g>
</svg>
