<?xml version="1.0" standalone="no"?>
<!DOCTYPE svg PUBLIC "-//W3C//DTD SVG 20010904//EN"
 "http://www.w3.org/TR/2001/REC-SVG-20010904/DTD/svg10.dtd">
<svg version="1.0" xmlns="http://www.w3.org/2000/svg"
 width="200.000000pt" height="200.000000pt" viewBox="0 0 200.000000 200.000000"
 preserveAspectRatio="xMidYMid meet">
<metadata>
Created by potrace 1.11, written by Peter Selinger 2001-2013
</metadata>
<g transform="translate(0.000000,200.000000) scale(0.100000,-0.100000)"
fill="#000000" stroke="none">
<path d="M0 1000 l0 -1000 1000 0 1000 0 0 1000 0 1000 -1000 0 -1000 0 0
-1000z m1055 403 c-3 -16 -13 -52 -21 -80 l-15 -53 -108 0 -109 0 -30 -112
c-17 -62 -50 -186 -74 -275 l-43 -163 -92 0 c-51 0 -93 4 -93 9 0 9 71 277
119 451 12 41 21 78 21 82 0 5 -47 8 -105 8 -80 0 -105 3 -105 13 0 11 21 93
35 135 3 9 76 12 316 12 l311 0 -7 -27z m635 18 c0 -4 -4 -21 -10 -37 -5 -16
-14 -48 -20 -71 l-11 -43 -194 0 -194 0 -15 -54 c-9 -30 -16 -57 -16 -60 0 -3
77 -6 170 -6 184 0 179 2 161 -56 -5 -16 -12 -41 -15 -56 l-6 -28 -175 0 -174
0 -16 -52 c-25 -84 -37 -78 175 -78 105 0 190 -3 190 -7 0 -5 -9 -39 -18 -78
l-18 -70 -288 -3 -288 -2 4 22 c3 13 45 173 94 355 l89 333 288 0 c158 0 287
-4 287 -9z m-425 -831 c-3 -5 -13 -10 -21 -10 -8 0 -14 5 -14 10 0 6 9 10 21
10 11 0 17 -4 14 -10z m180 0 c-3 -5 -13 -10 -21 -10 -8 0 -14 5 -14 10 0 6 9
10 21 10 11 0 17 -4 14 -10z m-259 -14 c19 -20 18 -33 -6 -39 -22 -6 -29 -57
-8 -57 8 0 7 -5 -3 -15 -9 -9 -23 -13 -32 -9 -15 5 -16 15 -11 57 10 71 30 92
60 63z m319 4 c-3 -5 -1 -10 4 -10 6 0 11 -7 11 -15 0 -8 -6 -15 -14 -15 -17
0 -28 -52 -13 -62 17 -10 -7 -32 -27 -25 -12 5 -15 18 -12 54 4 62 14 83 38
83 10 0 16 -4 13 -10z m-1015 -25 c13 -16 11 -17 -30 -19 -20 -1 -26 -7 -28
-30 -3 -26 -1 -28 22 -22 19 5 26 2 26 -8 0 -34 -70 -27 -84 9 -19 51 60 111
94 70z m112 -2 c48 -43 -14 -124 -72 -93 -29 15 -28 74 2 94 29 20 47 20 70
-1z m135 4 c8 -9 -6 -95 -18 -102 -19 -12 -28 6 -17 36 7 20 7 34 1 40 -12 12
-27 -5 -40 -45 -14 -44 -38 -48 -30 -5 12 73 23 88 62 85 19 -2 38 -6 42 -9z
m125 -4 c9 -12 9 -23 -3 -56 -17 -51 -35 -47 -31 7 5 52 -18 44 -36 -12 -13
-40 -25 -51 -36 -34 -3 5 2 31 10 59 14 48 17 51 49 51 19 0 40 -7 47 -15z
m109 7 c11 -6 19 -21 19 -35 0 -23 -4 -25 -41 -25 -24 0 -38 -4 -34 -10 3 -5
17 -10 31 -10 29 0 32 -16 4 -25 -27 -9 -70 19 -70 46 0 21 42 69 60 69 6 0
20 -5 31 -10z m129 -5 c13 -16 11 -17 -30 -19 -20 -1 -26 -7 -28 -30 -3 -26
-1 -28 22 -22 32 8 37 -19 6 -29 -33 -11 -60 12 -60 50 0 52 60 86 90 50z
m149 -7 c-1 -35 -24 -91 -39 -96 -10 -4 -11 4 -6 33 10 52 24 85 36 85 5 0 10
-10 9 -22z m61 -17 l5 -32 19 35 c17 32 46 49 46 28 0 -17 -72 -113 -83 -109
-12 4 -28 95 -20 110 10 17 28 -1 33 -32z m119 17 c-1 -35 -24 -91 -39 -96
-10 -4 -11 4 -6 33 10 52 24 85 36 85 5 0 10 -10 9 -22z m143 -15 l3 -38 23
38 c13 20 30 37 38 37 8 0 14 -2 14 -5 0 -10 -73 -121 -88 -132 -21 -17 -42
-16 -42 2 0 8 7 15 16 15 14 0 16 8 10 60 -6 50 -4 60 8 60 10 0 16 -12 18
-37z"/>
<path d="M547 533 c-11 -10 -8 -41 4 -49 16 -9 43 21 36 40 -7 16 -28 21 -40
9z"/>
<path d="M925 530 c-3 -5 3 -10 14 -10 12 0 21 5 21 10 0 6 -6 10 -14 10 -8 0
-18 -4 -21 -10z"/>
</g>
</svg>
