<?xml version="1.0" encoding="UTF-8" standalone="no"?>
<!DOCTYPE svg PUBLIC "-//W3C//DTD SVG 1.1//EN"
 "http://www.w3.org/Graphics/SVG/1.1/DTD/svg11.dtd">
<!-- Generated by graphviz version 2.46.0 (20210119.1425)
 -->
<!-- Title: dependencies Pages: 1 -->
<svg width="751pt" height="211pt"
 viewBox="0.00 0.00 751.00 211.00" xmlns="http://www.w3.org/2000/svg" xmlns:xlink="http://www.w3.org/1999/xlink">
<g id="graph0" class="graph" transform="scale(1 1) rotate(0) translate(4 207)">
<title>dependencies</title>
<polygon fill="white" stroke="transparent" points="-4,4 -4,-207 747,-207 747,4 -4,4"/>
<text text-anchor="start" x="350.51" y="-42.4" font-family="sans-serif" font-weight="bold" font-size="14.00">Legend</text>
<polygon fill="#ffffb3" stroke="transparent" points="137.5,-10 137.5,-30 157.5,-30 157.5,-10 137.5,-10"/>
<text text-anchor="start" x="161.13" y="-15.4" font-family="sans-serif" font-size="14.00"> &#160;Declarations</text>
<polygon fill="#8dd3c7" stroke="transparent" points="250.5,-10 250.5,-30 270.5,-30 270.5,-10 250.5,-10"/>
<text text-anchor="start" x="274.23" y="-15.4" font-family="sans-serif" font-size="14.00"> &#160;Module</text>
<polygon fill="#80b1d3" stroke="transparent" points="336.5,-10 336.5,-30 356.5,-30 356.5,-10 336.5,-10"/>
<text text-anchor="start" x="360.28" y="-15.4" font-family="sans-serif" font-size="14.00"> &#160;Bootstrap</text>
<polygon fill="#fdb462" stroke="transparent" points="433.5,-10 433.5,-30 453.5,-30 453.5,-10 433.5,-10"/>
<text text-anchor="start" x="457.17" y="-15.4" font-family="sans-serif" font-size="14.00"> &#160;Providers</text>
<polygon fill="#fb8072" stroke="transparent" points="529.5,-10 529.5,-30 549.5,-30 549.5,-10 529.5,-10"/>
<text text-anchor="start" x="553.23" y="-15.4" font-family="sans-serif" font-size="14.00"> &#160;Exports</text>
<g id="clust1" class="cluster">
<title>cluster_PrismModule</title>
<polygon fill="none" stroke="black" stroke-dasharray="1,5" points="8,-70 8,-195 735,-195 735,-70 8,-70"/>
</g>
<g id="clust2" class="cluster">
<title>cluster_PrismModule_declarations</title>
<polygon fill="none" stroke="black" points="421,-78 421,-130 727,-130 727,-78 421,-78"/>
</g>
<g id="clust5" class="cluster">
<title>cluster_PrismModule_imports</title>
<polygon fill="none" stroke="black" points="16,-78 16,-130 413,-130 413,-78 16,-78"/>
</g>
<!-- FilterOneComponent -->
<g id="node1" class="node">
<title>FilterOneComponent</title>
<polygon fill="#ffffb3" stroke="black" points="719.48,-122 584.52,-122 584.52,-86 719.48,-86 719.48,-122"/>
<text text-anchor="middle" x="652" y="-99.8" font-family="Times,serif" font-size="14.00">FilterOneComponent</text>
</g>
<!-- PrismModule -->
<g id="node3" class="node">
<title>PrismModule</title>
<polygon fill="#8dd3c7" stroke="black" points="399.22,-187 396.22,-191 375.22,-191 372.22,-187 306.78,-187 306.78,-151 399.22,-151 399.22,-187"/>
<text text-anchor="middle" x="353" y="-164.8" font-family="Times,serif" font-size="14.00">PrismModule</text>
</g>
<!-- FilterOneComponent&#45;&gt;PrismModule -->
<g id="edge1" class="edge">
<title>FilterOneComponent&#45;&gt;PrismModule</title>
<path fill="none" stroke="black" d="M652,-122.28C652,-143.32 652,-175 652,-175 652,-175 409.39,-175 409.39,-175"/>
<polygon fill="black" stroke="black" points="409.39,-171.5 399.39,-175 409.39,-178.5 409.39,-171.5"/>
</g>
<!-- FilterTwoComponent -->
<g id="node2" class="node">
<title>FilterTwoComponent</title>
<polygon fill="#ffffb3" stroke="black" points="566.82,-122 429.18,-122 429.18,-86 566.82,-86 566.82,-122"/>
<text text-anchor="middle" x="498" y="-99.8" font-family="Times,serif" font-size="14.00">FilterTwoComponent</text>
</g>
<!-- FilterTwoComponent&#45;&gt;PrismModule -->
<g id="edge2" class="edge">
<title>FilterTwoComponent&#45;&gt;PrismModule</title>
<path fill="none" stroke="black" d="M498,-122.02C498,-139.37 498,-163 498,-163 498,-163 409.28,-163 409.28,-163"/>
<polygon fill="black" stroke="black" points="409.28,-159.5 399.28,-163 409.28,-166.5 409.28,-159.5"/>
</g>
<!-- MastersModule -->
<g id="node4" class="node">
<title>MastersModule</title>
<polygon fill="#8dd3c7" stroke="black" points="404.86,-122 401.86,-126 380.86,-126 377.86,-122 301.14,-122 301.14,-86 404.86,-86 404.86,-122"/>
<text text-anchor="middle" x="353" y="-99.8" font-family="Times,serif" font-size="14.00">MastersModule</text>
</g>
<!-- MastersModule&#45;&gt;PrismModule -->
<g id="edge3" class="edge">
<title>MastersModule&#45;&gt;PrismModule</title>
<path fill="none" stroke="black" d="M353,-122.11C353,-122.11 353,-140.99 353,-140.99"/>
<polygon fill="black" stroke="black" points="349.5,-140.99 353,-150.99 356.5,-140.99 349.5,-140.99"/>
</g>
<!-- ReportsModule -->
<g id="node5" class="node">
<title>ReportsModule</title>
<polygon fill="#8dd3c7" stroke="black" points="283.6,-122 280.6,-126 259.6,-126 256.6,-122 180.4,-122 180.4,-86 283.6,-86 283.6,-122"/>
<text text-anchor="middle" x="232" y="-99.8" font-family="Times,serif" font-size="14.00">ReportsModule</text>
</g>
<!-- ReportsModule&#45;&gt;PrismModule -->
<g id="edge4" class="edge">
<title>ReportsModule&#45;&gt;PrismModule</title>
<path fill="none" stroke="black" d="M232,-122.02C232,-139.37 232,-163 232,-163 232,-163 296.56,-163 296.56,-163"/>
<polygon fill="black" stroke="black" points="296.56,-166.5 306.56,-163 296.56,-159.5 296.56,-166.5"/>
</g>
<!-- SharedCompsModule -->
<g id="node6" class="node">
<title>SharedCompsModule</title>
<polygon fill="#8dd3c7" stroke="black" points="162.09,-122 159.09,-126 138.09,-126 135.09,-122 23.91,-122 23.91,-86 162.09,-86 162.09,-122"/>
<text text-anchor="middle" x="93" y="-99.8" font-family="Times,serif" font-size="14.00">SharedCompsModule</text>
</g>
<!-- SharedCompsModule&#45;&gt;PrismModule -->
<g id="edge5" class="edge">
<title>SharedCompsModule&#45;&gt;PrismModule</title>
<path fill="none" stroke="black" d="M93,-122.28C93,-143.32 93,-175 93,-175 93,-175 296.82,-175 296.82,-175"/>
<polygon fill="black" stroke="black" points="296.82,-178.5 306.82,-175 296.82,-171.5 296.82,-178.5"/>
</g>
</g>
</svg>
