<?xml version="1.0" encoding="UTF-8" standalone="no"?>
<!DOCTYPE svg PUBLIC "-//W3C//DTD SVG 1.1//EN"
 "http://www.w3.org/Graphics/SVG/1.1/DTD/svg11.dtd">
<!-- Generated by graphviz version 2.46.0 (20210119.1425)
 -->
<!-- Title: dependencies Pages: 1 -->
<svg width="2143pt" height="284pt"
 viewBox="0.00 0.00 2143.00 284.00" xmlns="http://www.w3.org/2000/svg" xmlns:xlink="http://www.w3.org/1999/xlink">
<g id="graph0" class="graph" transform="scale(1 1) rotate(0) translate(4 280)">
<title>dependencies</title>
<polygon fill="white" stroke="transparent" points="-4,4 -4,-280 2139,-280 2139,4 -4,4"/>
<text text-anchor="start" x="1046.51" y="-42.4" font-family="sans-serif" font-weight="bold" font-size="14.00">Legend</text>
<polygon fill="#ffffb3" stroke="transparent" points="833.5,-10 833.5,-30 853.5,-30 853.5,-10 833.5,-10"/>
<text text-anchor="start" x="857.13" y="-15.4" font-family="sans-serif" font-size="14.00"> &#160;Declarations</text>
<polygon fill="#8dd3c7" stroke="transparent" points="946.5,-10 946.5,-30 966.5,-30 966.5,-10 946.5,-10"/>
<text text-anchor="start" x="970.23" y="-15.4" font-family="sans-serif" font-size="14.00"> &#160;Module</text>
<polygon fill="#80b1d3" stroke="transparent" points="1032.5,-10 1032.5,-30 1052.5,-30 1052.5,-10 1032.5,-10"/>
<text text-anchor="start" x="1056.28" y="-15.4" font-family="sans-serif" font-size="14.00"> &#160;Bootstrap</text>
<polygon fill="#fdb462" stroke="transparent" points="1129.5,-10 1129.5,-30 1149.5,-30 1149.5,-10 1129.5,-10"/>
<text text-anchor="start" x="1153.17" y="-15.4" font-family="sans-serif" font-size="14.00"> &#160;Providers</text>
<polygon fill="#fb8072" stroke="transparent" points="1225.5,-10 1225.5,-30 1245.5,-30 1245.5,-10 1225.5,-10"/>
<text text-anchor="start" x="1249.23" y="-15.4" font-family="sans-serif" font-size="14.00"> &#160;Exports</text>
<g id="clust1" class="cluster">
<title>cluster_SharedModule</title>
<polygon fill="none" stroke="black" stroke-dasharray="1,5" points="8,-70 8,-268 2127,-268 2127,-70 8,-70"/>
</g>
<g id="clust17" class="cluster">
<title>cluster_SharedModule_exports</title>
<polygon fill="none" stroke="black" points="84,-208 84,-260 2038,-260 2038,-208 84,-208"/>
</g>
<g id="clust2" class="cluster">
<title>cluster_SharedModule_declarations</title>
<polygon fill="none" stroke="black" points="16,-78 16,-130 2119,-130 2119,-78 16,-78"/>
</g>
<!-- CellComponent -->
<g id="node1" class="node">
<title>CellComponent</title>
<polygon fill="#ffffb3" stroke="black" points="2111.17,-122 2006.83,-122 2006.83,-86 2111.17,-86 2111.17,-122"/>
<text text-anchor="middle" x="2059" y="-99.8" font-family="Times,serif" font-size="14.00">CellComponent</text>
</g>
<!-- SharedModule -->
<g id="node14" class="node">
<title>SharedModule</title>
<polygon fill="#8dd3c7" stroke="black" points="1020.42,-187 1017.42,-191 996.42,-191 993.42,-187 921.58,-187 921.58,-151 1020.42,-151 1020.42,-187"/>
<text text-anchor="middle" x="971" y="-164.8" font-family="Times,serif" font-size="14.00">SharedModule</text>
</g>
<!-- CellComponent&#45;&gt;SharedModule -->
<g id="edge1" class="edge">
<title>CellComponent&#45;&gt;SharedModule</title>
<path fill="none" stroke="black" d="M2018.38,-122.11C2018.38,-141.34 2018.38,-169 2018.38,-169 2018.38,-169 1030.46,-169 1030.46,-169"/>
<polygon fill="black" stroke="black" points="1030.46,-165.5 1020.46,-169 1030.46,-172.5 1030.46,-165.5"/>
</g>
<!-- ColumnManagerComponent -->
<g id="node2" class="node">
<title>ColumnManagerComponent</title>
<polygon fill="#ffffb3" stroke="black" points="1989.2,-122 1812.8,-122 1812.8,-86 1989.2,-86 1989.2,-122"/>
<text text-anchor="middle" x="1901" y="-99.8" font-family="Times,serif" font-size="14.00">ColumnManagerComponent</text>
</g>
<!-- ColumnManagerComponent&#45;&gt;SharedModule -->
<g id="edge2" class="edge">
<title>ColumnManagerComponent&#45;&gt;SharedModule</title>
<path fill="none" stroke="black" d="M1858.65,-122.27C1858.65,-140.56 1858.65,-166 1858.65,-166 1858.65,-166 1030.31,-166 1030.31,-166"/>
<polygon fill="black" stroke="black" points="1030.31,-162.5 1020.31,-166 1030.31,-169.5 1030.31,-162.5"/>
</g>
<!-- ConfirmationModalComponent -->
<g id="node3" class="node">
<title>ConfirmationModalComponent</title>
<polygon fill="#ffffb3" stroke="black" points="1794.82,-122 1601.18,-122 1601.18,-86 1794.82,-86 1794.82,-122"/>
<text text-anchor="middle" x="1698" y="-99.8" font-family="Times,serif" font-size="14.00">ConfirmationModalComponent</text>
</g>
<!-- ConfirmationModalComponent&#45;&gt;SharedModule -->
<g id="edge3" class="edge">
<title>ConfirmationModalComponent&#45;&gt;SharedModule</title>
<path fill="none" stroke="black" d="M1645.26,-122.02C1645.26,-139.37 1645.26,-163 1645.26,-163 1645.26,-163 1030.31,-163 1030.31,-163"/>
<polygon fill="black" stroke="black" points="1030.31,-159.5 1020.31,-163 1030.31,-166.5 1030.31,-159.5"/>
</g>
<!-- DataTableBaseComponent -->
<g id="node4" class="node">
<title>DataTableBaseComponent</title>
<polygon fill="#ffffb3" stroke="black" points="1583.34,-122 1416.66,-122 1416.66,-86 1583.34,-86 1583.34,-122"/>
<text text-anchor="middle" x="1500" y="-99.8" font-family="Times,serif" font-size="14.00">DataTableBaseComponent</text>
</g>
<!-- DataTableBaseComponent&#45;&gt;SharedModule -->
<g id="edge4" class="edge">
<title>DataTableBaseComponent&#45;&gt;SharedModule</title>
<path fill="none" stroke="black" d="M1458.77,-122.03C1458.77,-138.4 1458.77,-160 1458.77,-160 1458.77,-160 1030.45,-160 1030.45,-160"/>
<polygon fill="black" stroke="black" points="1030.45,-156.5 1020.45,-160 1030.45,-163.5 1030.45,-156.5"/>
</g>
<!-- DataTableShellComponent -->
<g id="node5" class="node">
<title>DataTableShellComponent</title>
<polygon fill="#ffffb3" stroke="black" points="1398.41,-122 1229.59,-122 1229.59,-86 1398.41,-86 1398.41,-122"/>
<text text-anchor="middle" x="1314" y="-99.8" font-family="Times,serif" font-size="14.00">DataTableShellComponent</text>
</g>
<!-- DataTableShellComponent&#45;&gt;SharedModule -->
<g id="edge5" class="edge">
<title>DataTableShellComponent&#45;&gt;SharedModule</title>
<path fill="none" stroke="black" d="M1270.35,-122.24C1270.35,-137.57 1270.35,-157 1270.35,-157 1270.35,-157 1030.43,-157 1030.43,-157"/>
<polygon fill="black" stroke="black" points="1030.43,-153.5 1020.43,-157 1030.43,-160.5 1030.43,-153.5"/>
</g>
<!-- DropDownComponent -->
<g id="node6" class="node">
<title>DropDownComponent</title>
<polygon fill="#ffffb3" stroke="black" points="1212.31,-122 1067.69,-122 1067.69,-86 1212.31,-86 1212.31,-122"/>
<text text-anchor="middle" x="1140" y="-99.8" font-family="Times,serif" font-size="14.00">DropDownComponent</text>
</g>
<!-- DropDownComponent&#45;&gt;SharedModule -->
<g id="edge6" class="edge">
<title>DropDownComponent&#45;&gt;SharedModule</title>
<path fill="none" stroke="black" d="M1106.67,-122.05C1106.67,-136.37 1106.67,-154 1106.67,-154 1106.67,-154 1030.37,-154 1030.37,-154"/>
<polygon fill="black" stroke="black" points="1030.37,-150.5 1020.37,-154 1030.37,-157.5 1030.37,-150.5"/>
</g>
<!-- HasPermissionsDirective -->
<g id="node7" class="node">
<title>HasPermissionsDirective</title>
<polygon fill="#ffffb3" stroke="black" points="1049.51,-122 892.49,-122 892.49,-86 1049.51,-86 1049.51,-122"/>
<text text-anchor="middle" x="971" y="-99.8" font-family="Times,serif" font-size="14.00">HasPermissionsDirective</text>
</g>
<!-- HasPermissionsDirective&#45;&gt;SharedModule -->
<g id="edge7" class="edge">
<title>HasPermissionsDirective&#45;&gt;SharedModule</title>
<path fill="none" stroke="black" d="M971,-122.11C971,-122.11 971,-140.99 971,-140.99"/>
<polygon fill="black" stroke="black" points="967.5,-140.99 971,-150.99 974.5,-140.99 967.5,-140.99"/>
</g>
<!-- LoaderComponent -->
<g id="node8" class="node">
<title>LoaderComponent</title>
<polygon fill="#ffffb3" stroke="black" points="874.47,-122 753.53,-122 753.53,-86 874.47,-86 874.47,-122"/>
<text text-anchor="middle" x="814" y="-99.8" font-family="Times,serif" font-size="14.00">LoaderComponent</text>
</g>
<!-- LoaderComponent&#45;&gt;SharedModule -->
<g id="edge8" class="edge">
<title>LoaderComponent&#45;&gt;SharedModule</title>
<path fill="none" stroke="black" d="M858.12,-122.05C858.12,-136.37 858.12,-154 858.12,-154 858.12,-154 911.49,-154 911.49,-154"/>
<polygon fill="black" stroke="black" points="911.49,-157.5 921.49,-154 911.49,-150.5 911.49,-157.5"/>
</g>
<!-- PaginationControlComponent -->
<g id="node9" class="node">
<title>PaginationControlComponent</title>
<polygon fill="#ffffb3" stroke="black" points="735.99,-122 552.01,-122 552.01,-86 735.99,-86 735.99,-122"/>
<text text-anchor="middle" x="644" y="-99.8" font-family="Times,serif" font-size="14.00">PaginationControlComponent</text>
</g>
<!-- PaginationControlComponent&#45;&gt;SharedModule -->
<g id="edge9" class="edge">
<title>PaginationControlComponent&#45;&gt;SharedModule</title>
<path fill="none" stroke="black" d="M686.12,-122.24C686.12,-137.57 686.12,-157 686.12,-157 686.12,-157 911.7,-157 911.7,-157"/>
<polygon fill="black" stroke="black" points="911.7,-160.5 921.7,-157 911.7,-153.5 911.7,-160.5"/>
</g>
<!-- PlaceholderDirective -->
<g id="node10" class="node">
<title>PlaceholderDirective</title>
<polygon fill="#ffffb3" stroke="black" points="534.17,-122 399.83,-122 399.83,-86 534.17,-86 534.17,-122"/>
<text text-anchor="middle" x="467" y="-99.8" font-family="Times,serif" font-size="14.00">PlaceholderDirective</text>
</g>
<!-- PlaceholderDirective&#45;&gt;SharedModule -->
<g id="edge10" class="edge">
<title>PlaceholderDirective&#45;&gt;SharedModule</title>
<path fill="none" stroke="black" d="M507.12,-122.03C507.12,-138.4 507.12,-160 507.12,-160 507.12,-160 911.36,-160 911.36,-160"/>
<polygon fill="black" stroke="black" points="911.36,-163.5 921.36,-160 911.36,-156.5 911.36,-163.5"/>
</g>
<!-- TextBoxComponent -->
<g id="node11" class="node">
<title>TextBoxComponent</title>
<polygon fill="#ffffb3" stroke="black" points="382.33,-122 251.67,-122 251.67,-86 382.33,-86 382.33,-122"/>
<text text-anchor="middle" x="317" y="-99.8" font-family="Times,serif" font-size="14.00">TextBoxComponent</text>
</g>
<!-- TextBoxComponent&#45;&gt;SharedModule -->
<g id="edge11" class="edge">
<title>TextBoxComponent&#45;&gt;SharedModule</title>
<path fill="none" stroke="black" d="M355.12,-122.02C355.12,-139.37 355.12,-163 355.12,-163 355.12,-163 911.64,-163 911.64,-163"/>
<polygon fill="black" stroke="black" points="911.64,-166.5 921.64,-163 911.64,-159.5 911.64,-166.5"/>
</g>
<!-- ToastComponent -->
<g id="node12" class="node">
<title>ToastComponent</title>
<polygon fill="#ffffb3" stroke="black" points="234.44,-122 121.56,-122 121.56,-86 234.44,-86 234.44,-122"/>
<text text-anchor="middle" x="178" y="-99.8" font-family="Times,serif" font-size="14.00">ToastComponent</text>
</g>
<!-- ToastComponent&#45;&gt;SharedModule -->
<g id="edge12" class="edge">
<title>ToastComponent&#45;&gt;SharedModule</title>
<path fill="none" stroke="black" d="M214.12,-122.27C214.12,-140.56 214.12,-166 214.12,-166 214.12,-166 911.63,-166 911.63,-166"/>
<polygon fill="black" stroke="black" points="911.63,-169.5 921.63,-166 911.63,-162.5 911.63,-169.5"/>
</g>
<!-- YesNoPipe -->
<g id="node13" class="node">
<title>YesNoPipe</title>
<polygon fill="#ffffb3" stroke="black" points="103.76,-122 24.24,-122 24.24,-86 103.76,-86 103.76,-122"/>
<text text-anchor="middle" x="64" y="-99.8" font-family="Times,serif" font-size="14.00">YesNoPipe</text>
</g>
<!-- YesNoPipe&#45;&gt;SharedModule -->
<g id="edge13" class="edge">
<title>YesNoPipe&#45;&gt;SharedModule</title>
<path fill="none" stroke="black" d="M98.12,-122.11C98.12,-141.34 98.12,-169 98.12,-169 98.12,-169 911.57,-169 911.57,-169"/>
<polygon fill="black" stroke="black" points="911.57,-172.5 921.57,-169 911.57,-165.5 911.57,-172.5"/>
</g>
<!-- CellComponent  -->
<g id="node15" class="node">
<title>CellComponent </title>
<polygon fill="#fb8072" stroke="black" points="2030.16,-252 1921.84,-252 1921.84,-216 2030.16,-216 2030.16,-252"/>
<text text-anchor="middle" x="1976" y="-229.8" font-family="Times,serif" font-size="14.00">CellComponent </text>
</g>
<!-- SharedModule&#45;&gt;CellComponent  -->
<g id="edge14" class="edge">
<title>SharedModule&#45;&gt;CellComponent </title>
<path fill="none" stroke="black" stroke-dasharray="5,2" d="M1020.5,-172C1220.14,-172 1955.51,-172 1955.51,-172 1955.51,-172 1955.51,-205.73 1955.51,-205.73"/>
<polygon fill="black" stroke="black" points="1952.01,-205.73 1955.51,-215.73 1959.01,-205.73 1952.01,-205.73"/>
</g>
<!-- ConfirmationModalComponent  -->
<g id="node16" class="node">
<title>ConfirmationModalComponent </title>
<polygon fill="#fb8072" stroke="black" points="1904.32,-252 1707.68,-252 1707.68,-216 1904.32,-216 1904.32,-252"/>
<text text-anchor="middle" x="1806" y="-229.8" font-family="Times,serif" font-size="14.00">ConfirmationModalComponent </text>
</g>
<!-- SharedModule&#45;&gt;ConfirmationModalComponent  -->
<g id="edge15" class="edge">
<title>SharedModule&#45;&gt;ConfirmationModalComponent </title>
<path fill="none" stroke="black" stroke-dasharray="5,2" d="M1020.39,-175C1191.88,-175 1751.12,-175 1751.12,-175 1751.12,-175 1751.12,-205.98 1751.12,-205.98"/>
<polygon fill="black" stroke="black" points="1747.63,-205.98 1751.12,-215.98 1754.63,-205.98 1747.63,-205.98"/>
</g>
<!-- DataTableBaseComponent  -->
<g id="node17" class="node">
<title>DataTableBaseComponent </title>
<polygon fill="#fb8072" stroke="black" points="1689.34,-252 1518.66,-252 1518.66,-216 1689.34,-216 1689.34,-252"/>
<text text-anchor="middle" x="1604" y="-229.8" font-family="Times,serif" font-size="14.00">DataTableBaseComponent </text>
</g>
<!-- SharedModule&#45;&gt;DataTableBaseComponent  -->
<g id="edge16" class="edge">
<title>SharedModule&#45;&gt;DataTableBaseComponent </title>
<path fill="none" stroke="black" stroke-dasharray="5,2" d="M1020.46,-178C1160.75,-178 1551.12,-178 1551.12,-178 1551.12,-178 1551.12,-205.97 1551.12,-205.97"/>
<polygon fill="black" stroke="black" points="1547.63,-205.97 1551.12,-215.97 1554.63,-205.97 1547.63,-205.97"/>
</g>
<!-- DataTableShellComponent  -->
<g id="node18" class="node">
<title>DataTableShellComponent </title>
<polygon fill="#fb8072" stroke="black" points="1500.91,-252 1329.09,-252 1329.09,-216 1500.91,-216 1500.91,-252"/>
<text text-anchor="middle" x="1415" y="-229.8" font-family="Times,serif" font-size="14.00">DataTableShellComponent </text>
</g>
<!-- SharedModule&#45;&gt;DataTableShellComponent  -->
<g id="edge17" class="edge">
<title>SharedModule&#45;&gt;DataTableShellComponent </title>
<path fill="none" stroke="black" stroke-dasharray="5,2" d="M1020.33,-181C1125.78,-181 1363.62,-181 1363.62,-181 1363.62,-181 1363.62,-205.76 1363.62,-205.76"/>
<polygon fill="black" stroke="black" points="1360.13,-205.76 1363.62,-215.76 1367.13,-205.76 1360.13,-205.76"/>
</g>
<!-- DropDownComponent  -->
<g id="node19" class="node">
<title>DropDownComponent </title>
<polygon fill="#fb8072" stroke="black" points="1310.81,-252 1163.19,-252 1163.19,-216 1310.81,-216 1310.81,-252"/>
<text text-anchor="middle" x="1237" y="-229.8" font-family="Times,serif" font-size="14.00">DropDownComponent </text>
</g>
<!-- SharedModule&#45;&gt;DropDownComponent  -->
<g id="edge18" class="edge">
<title>SharedModule&#45;&gt;DropDownComponent </title>
<path fill="none" stroke="black" stroke-dasharray="5,2" d="M1020.43,-184C1084.36,-184 1187.62,-184 1187.62,-184 1187.62,-184 1187.62,-205.95 1187.62,-205.95"/>
<polygon fill="black" stroke="black" points="1184.13,-205.95 1187.62,-215.95 1191.13,-205.95 1184.13,-205.95"/>
</g>
<!-- HasPermissionsDirective  -->
<g id="node20" class="node">
<title>HasPermissionsDirective </title>
<polygon fill="#fb8072" stroke="black" points="1145.51,-252 984.49,-252 984.49,-216 1145.51,-216 1145.51,-252"/>
<text text-anchor="middle" x="1065" y="-229.8" font-family="Times,serif" font-size="14.00">HasPermissionsDirective </text>
</g>
<!-- SharedModule&#45;&gt;HasPermissionsDirective  -->
<g id="edge19" class="edge">
<title>SharedModule&#45;&gt;HasPermissionsDirective </title>
<path fill="none" stroke="black" stroke-dasharray="5,2" d="M1002.35,-187.11C1002.35,-187.11 1002.35,-205.99 1002.35,-205.99"/>
<polygon fill="black" stroke="black" points="998.85,-205.99 1002.35,-215.99 1005.85,-205.99 998.85,-205.99"/>
</g>
<!-- LoaderComponent  -->
<g id="node21" class="node">
<title>LoaderComponent </title>
<polygon fill="#fb8072" stroke="black" points="966.48,-252 841.52,-252 841.52,-216 966.48,-216 966.48,-252"/>
<text text-anchor="middle" x="904" y="-229.8" font-family="Times,serif" font-size="14.00">LoaderComponent </text>
</g>
<!-- SharedModule&#45;&gt;LoaderComponent  -->
<g id="edge20" class="edge">
<title>SharedModule&#45;&gt;LoaderComponent </title>
<path fill="none" stroke="black" stroke-dasharray="5,2" d="M944.01,-187.11C944.01,-187.11 944.01,-205.99 944.01,-205.99"/>
<polygon fill="black" stroke="black" points="940.51,-205.99 944.01,-215.99 947.51,-205.99 940.51,-205.99"/>
</g>
<!-- PaginationControlComponent  -->
<g id="node22" class="node">
<title>PaginationControlComponent </title>
<polygon fill="#fb8072" stroke="black" points="824,-252 636,-252 636,-216 824,-216 824,-252"/>
<text text-anchor="middle" x="730" y="-229.8" font-family="Times,serif" font-size="14.00">PaginationControlComponent </text>
</g>
<!-- SharedModule&#45;&gt;PaginationControlComponent  -->
<g id="edge21" class="edge">
<title>SharedModule&#45;&gt;PaginationControlComponent </title>
<path fill="none" stroke="black" stroke-dasharray="5,2" d="M921.65,-184C867.64,-184 788.63,-184 788.63,-184 788.63,-184 788.63,-205.95 788.63,-205.95"/>
<polygon fill="black" stroke="black" points="785.13,-205.95 788.63,-215.95 792.13,-205.95 785.13,-205.95"/>
</g>
<!-- PlaceholderDirective  -->
<g id="node23" class="node">
<title>PlaceholderDirective </title>
<polygon fill="#fb8072" stroke="black" points="617.67,-252 480.33,-252 480.33,-216 617.67,-216 617.67,-252"/>
<text text-anchor="middle" x="549" y="-229.8" font-family="Times,serif" font-size="14.00">PlaceholderDirective </text>
</g>
<!-- SharedModule&#45;&gt;PlaceholderDirective  -->
<g id="edge22" class="edge">
<title>SharedModule&#45;&gt;PlaceholderDirective </title>
<path fill="none" stroke="black" stroke-dasharray="5,2" d="M921.71,-181C817.63,-181 584.92,-181 584.92,-181 584.92,-181 584.92,-205.76 584.92,-205.76"/>
<polygon fill="black" stroke="black" points="581.42,-205.76 584.92,-215.76 588.42,-205.76 581.42,-205.76"/>
</g>
<!-- TextBoxComponent  -->
<g id="node24" class="node">
<title>TextBoxComponent </title>
<polygon fill="#fb8072" stroke="black" points="461.83,-252 328.17,-252 328.17,-216 461.83,-216 461.83,-252"/>
<text text-anchor="middle" x="395" y="-229.8" font-family="Times,serif" font-size="14.00">TextBoxComponent </text>
</g>
<!-- SharedModule&#45;&gt;TextBoxComponent  -->
<g id="edge23" class="edge">
<title>SharedModule&#45;&gt;TextBoxComponent </title>
<path fill="none" stroke="black" stroke-dasharray="5,2" d="M921.64,-178C788.31,-178 430.92,-178 430.92,-178 430.92,-178 430.92,-205.97 430.92,-205.97"/>
<polygon fill="black" stroke="black" points="427.42,-205.97 430.92,-215.97 434.42,-205.97 427.42,-205.97"/>
</g>
<!-- ToastComponent  -->
<g id="node25" class="node">
<title>ToastComponent </title>
<polygon fill="#fb8072" stroke="black" points="309.93,-252 194.07,-252 194.07,-216 309.93,-216 309.93,-252"/>
<text text-anchor="middle" x="252" y="-229.8" font-family="Times,serif" font-size="14.00">ToastComponent </text>
</g>
<!-- SharedModule&#45;&gt;ToastComponent  -->
<g id="edge24" class="edge">
<title>SharedModule&#45;&gt;ToastComponent </title>
<path fill="none" stroke="black" stroke-dasharray="5,2" d="M921.65,-175C763.7,-175 280.9,-175 280.9,-175 280.9,-175 280.9,-205.98 280.9,-205.98"/>
<polygon fill="black" stroke="black" points="277.4,-205.98 280.9,-215.98 284.4,-205.98 277.4,-205.98"/>
</g>
<!-- YesNoPipe  -->
<g id="node26" class="node">
<title>YesNoPipe </title>
<polygon fill="#fb8072" stroke="black" points="175.76,-252 92.24,-252 92.24,-216 175.76,-216 175.76,-252"/>
<text text-anchor="middle" x="134" y="-229.8" font-family="Times,serif" font-size="14.00">YesNoPipe </text>
</g>
<!-- SharedModule&#45;&gt;YesNoPipe  -->
<g id="edge25" class="edge">
<title>SharedModule&#45;&gt;YesNoPipe </title>
<path fill="none" stroke="black" stroke-dasharray="5,2" d="M921.72,-172C744.32,-172 148.71,-172 148.71,-172 148.71,-172 148.71,-205.73 148.71,-205.73"/>
<polygon fill="black" stroke="black" points="145.21,-205.73 148.71,-215.73 152.21,-205.73 145.21,-205.73"/>
</g>
</g>
</svg>
