<?xml version="1.0" encoding="UTF-8" standalone="no"?>
<!DOCTYPE svg PUBLIC "-//W3C//DTD SVG 1.1//EN"
 "http://www.w3.org/Graphics/SVG/1.1/DTD/svg11.dtd">
<!-- Generated by graphviz version 2.46.0 (20210119.1425)
 -->
<!-- Title: dependencies Pages: 1 -->
<svg width="625pt" height="211pt"
 viewBox="0.00 0.00 625.00 211.00" xmlns="http://www.w3.org/2000/svg" xmlns:xlink="http://www.w3.org/1999/xlink">
<g id="graph0" class="graph" transform="scale(1 1) rotate(0) translate(4 207)">
<title>dependencies</title>
<polygon fill="white" stroke="transparent" points="-4,4 -4,-207 621,-207 621,4 -4,4"/>
<text text-anchor="start" x="287.51" y="-42.4" font-family="sans-serif" font-weight="bold" font-size="14.00">Legend</text>
<polygon fill="#ffffb3" stroke="transparent" points="74.5,-10 74.5,-30 94.5,-30 94.5,-10 74.5,-10"/>
<text text-anchor="start" x="98.13" y="-15.4" font-family="sans-serif" font-size="14.00"> &#160;Declarations</text>
<polygon fill="#8dd3c7" stroke="transparent" points="187.5,-10 187.5,-30 207.5,-30 207.5,-10 187.5,-10"/>
<text text-anchor="start" x="211.23" y="-15.4" font-family="sans-serif" font-size="14.00"> &#160;Module</text>
<polygon fill="#80b1d3" stroke="transparent" points="273.5,-10 273.5,-30 293.5,-30 293.5,-10 273.5,-10"/>
<text text-anchor="start" x="297.28" y="-15.4" font-family="sans-serif" font-size="14.00"> &#160;Bootstrap</text>
<polygon fill="#fdb462" stroke="transparent" points="370.5,-10 370.5,-30 390.5,-30 390.5,-10 370.5,-10"/>
<text text-anchor="start" x="394.17" y="-15.4" font-family="sans-serif" font-size="14.00"> &#160;Providers</text>
<polygon fill="#fb8072" stroke="transparent" points="466.5,-10 466.5,-30 486.5,-30 486.5,-10 466.5,-10"/>
<text text-anchor="start" x="490.23" y="-15.4" font-family="sans-serif" font-size="14.00"> &#160;Exports</text>
<g id="clust1" class="cluster">
<title>cluster_TblAnnouncementsModule</title>
<polygon fill="none" stroke="black" stroke-dasharray="1,5" points="8,-70 8,-195 609,-195 609,-70 8,-70"/>
</g>
<g id="clust5" class="cluster">
<title>cluster_TblAnnouncementsModule_imports</title>
<polygon fill="none" stroke="black" points="487,-78 487,-130 601,-130 601,-78 487,-78"/>
</g>
<g id="clust2" class="cluster">
<title>cluster_TblAnnouncementsModule_declarations</title>
<polygon fill="none" stroke="black" points="16,-78 16,-130 479,-130 479,-78 16,-78"/>
</g>
<!-- TblAnnouncementsEditComponent -->
<g id="node1" class="node">
<title>TblAnnouncementsEditComponent</title>
<polygon fill="#ffffb3" stroke="black" points="470.59,-122 255.41,-122 255.41,-86 470.59,-86 470.59,-122"/>
<text text-anchor="middle" x="363" y="-99.8" font-family="Times,serif" font-size="14.00">TblAnnouncementsEditComponent</text>
</g>
<!-- TblAnnouncementsModule -->
<g id="node3" class="node">
<title>TblAnnouncementsModule</title>
<polygon fill="#8dd3c7" stroke="black" points="447.97,-187 444.97,-191 423.97,-191 420.97,-187 278.03,-187 278.03,-151 447.97,-151 447.97,-187"/>
<text text-anchor="middle" x="363" y="-164.8" font-family="Times,serif" font-size="14.00">TblAnnouncementsModule</text>
</g>
<!-- TblAnnouncementsEditComponent&#45;&gt;TblAnnouncementsModule -->
<g id="edge1" class="edge">
<title>TblAnnouncementsEditComponent&#45;&gt;TblAnnouncementsModule</title>
<path fill="none" stroke="black" d="M363,-122.11C363,-122.11 363,-140.99 363,-140.99"/>
<polygon fill="black" stroke="black" points="359.5,-140.99 363,-150.99 366.5,-140.99 359.5,-140.99"/>
</g>
<!-- TblAnnouncementsListComponent -->
<g id="node2" class="node">
<title>TblAnnouncementsListComponent</title>
<polygon fill="#ffffb3" stroke="black" points="237.53,-122 24.47,-122 24.47,-86 237.53,-86 237.53,-122"/>
<text text-anchor="middle" x="131" y="-99.8" font-family="Times,serif" font-size="14.00">TblAnnouncementsListComponent</text>
</g>
<!-- TblAnnouncementsListComponent&#45;&gt;TblAnnouncementsModule -->
<g id="edge2" class="edge">
<title>TblAnnouncementsListComponent&#45;&gt;TblAnnouncementsModule</title>
<path fill="none" stroke="black" d="M131,-122.11C131,-141.34 131,-169 131,-169 131,-169 267.93,-169 267.93,-169"/>
<polygon fill="black" stroke="black" points="267.93,-172.5 277.93,-169 267.93,-165.5 267.93,-172.5"/>
</g>
<!-- SharedModule -->
<g id="node4" class="node">
<title>SharedModule</title>
<polygon fill="#8dd3c7" stroke="black" points="593.42,-122 590.42,-126 569.42,-126 566.42,-122 494.58,-122 494.58,-86 593.42,-86 593.42,-122"/>
<text text-anchor="middle" x="544" y="-99.8" font-family="Times,serif" font-size="14.00">SharedModule</text>
</g>
<!-- SharedModule&#45;&gt;TblAnnouncementsModule -->
<g id="edge3" class="edge">
<title>SharedModule&#45;&gt;TblAnnouncementsModule</title>
<path fill="none" stroke="black" d="M544,-122.11C544,-141.34 544,-169 544,-169 544,-169 458.2,-169 458.2,-169"/>
<polygon fill="black" stroke="black" points="458.2,-165.5 448.2,-169 458.2,-172.5 458.2,-165.5"/>
</g>
</g>
</svg>
