<?xml version="1.0" encoding="UTF-8" standalone="no"?>
<!DOCTYPE svg PUBLIC "-//W3C//DTD SVG 1.1//EN"
 "http://www.w3.org/Graphics/SVG/1.1/DTD/svg11.dtd">
<!-- Generated by graphviz version 2.46.0 (20210119.1425)
 -->
<!-- Title: dependencies Pages: 1 -->
<svg width="600pt" height="211pt"
 viewBox="0.00 0.00 600.00 211.00" xmlns="http://www.w3.org/2000/svg" xmlns:xlink="http://www.w3.org/1999/xlink">
<g id="graph0" class="graph" transform="scale(1 1) rotate(0) translate(4 207)">
<title>dependencies</title>
<polygon fill="white" stroke="transparent" points="-4,4 -4,-207 596,-207 596,4 -4,4"/>
<text text-anchor="start" x="275.01" y="-42.4" font-family="sans-serif" font-weight="bold" font-size="14.00">Legend</text>
<polygon fill="#ffffb3" stroke="transparent" points="62,-10 62,-30 82,-30 82,-10 62,-10"/>
<text text-anchor="start" x="85.63" y="-15.4" font-family="sans-serif" font-size="14.00"> &#160;Declarations</text>
<polygon fill="#8dd3c7" stroke="transparent" points="175,-10 175,-30 195,-30 195,-10 175,-10"/>
<text text-anchor="start" x="198.73" y="-15.4" font-family="sans-serif" font-size="14.00"> &#160;Module</text>
<polygon fill="#80b1d3" stroke="transparent" points="261,-10 261,-30 281,-30 281,-10 261,-10"/>
<text text-anchor="start" x="284.78" y="-15.4" font-family="sans-serif" font-size="14.00"> &#160;Bootstrap</text>
<polygon fill="#fdb462" stroke="transparent" points="358,-10 358,-30 378,-30 378,-10 358,-10"/>
<text text-anchor="start" x="381.67" y="-15.4" font-family="sans-serif" font-size="14.00"> &#160;Providers</text>
<polygon fill="#fb8072" stroke="transparent" points="454,-10 454,-30 474,-30 474,-10 454,-10"/>
<text text-anchor="start" x="477.73" y="-15.4" font-family="sans-serif" font-size="14.00"> &#160;Exports</text>
<g id="clust1" class="cluster">
<title>cluster_TblTaskCategoryModule</title>
<polygon fill="none" stroke="black" stroke-dasharray="1,5" points="8,-70 8,-195 584,-195 584,-70 8,-70"/>
</g>
<g id="clust2" class="cluster">
<title>cluster_TblTaskCategoryModule_declarations</title>
<polygon fill="none" stroke="black" points="138,-78 138,-130 576,-130 576,-78 138,-78"/>
</g>
<g id="clust5" class="cluster">
<title>cluster_TblTaskCategoryModule_imports</title>
<polygon fill="none" stroke="black" points="16,-78 16,-130 130,-130 130,-78 16,-78"/>
</g>
<!-- TblTaskCategoryEditComponent -->
<g id="node1" class="node">
<title>TblTaskCategoryEditComponent</title>
<polygon fill="#ffffb3" stroke="black" points="568.14,-122 365.86,-122 365.86,-86 568.14,-86 568.14,-122"/>
<text text-anchor="middle" x="467" y="-99.8" font-family="Times,serif" font-size="14.00">TblTaskCategoryEditComponent</text>
</g>
<!-- TblTaskCategoryModule -->
<g id="node3" class="node">
<title>TblTaskCategoryModule</title>
<polygon fill="#8dd3c7" stroke="black" points="325.52,-187 322.52,-191 301.52,-191 298.52,-187 168.48,-187 168.48,-151 325.52,-151 325.52,-187"/>
<text text-anchor="middle" x="247" y="-164.8" font-family="Times,serif" font-size="14.00">TblTaskCategoryModule</text>
</g>
<!-- TblTaskCategoryEditComponent&#45;&gt;TblTaskCategoryModule -->
<g id="edge1" class="edge">
<title>TblTaskCategoryEditComponent&#45;&gt;TblTaskCategoryModule</title>
<path fill="none" stroke="black" d="M467,-122.11C467,-141.34 467,-169 467,-169 467,-169 335.8,-169 335.8,-169"/>
<polygon fill="black" stroke="black" points="335.8,-165.5 325.8,-169 335.8,-172.5 335.8,-165.5"/>
</g>
<!-- TblTaskCategoryListComponent -->
<g id="node2" class="node">
<title>TblTaskCategoryListComponent</title>
<polygon fill="#ffffb3" stroke="black" points="347.58,-122 146.42,-122 146.42,-86 347.58,-86 347.58,-122"/>
<text text-anchor="middle" x="247" y="-99.8" font-family="Times,serif" font-size="14.00">TblTaskCategoryListComponent</text>
</g>
<!-- TblTaskCategoryListComponent&#45;&gt;TblTaskCategoryModule -->
<g id="edge2" class="edge">
<title>TblTaskCategoryListComponent&#45;&gt;TblTaskCategoryModule</title>
<path fill="none" stroke="black" d="M247,-122.11C247,-122.11 247,-140.99 247,-140.99"/>
<polygon fill="black" stroke="black" points="243.5,-140.99 247,-150.99 250.5,-140.99 243.5,-140.99"/>
</g>
<!-- SharedModule -->
<g id="node4" class="node">
<title>SharedModule</title>
<polygon fill="#8dd3c7" stroke="black" points="122.42,-122 119.42,-126 98.42,-126 95.42,-122 23.58,-122 23.58,-86 122.42,-86 122.42,-122"/>
<text text-anchor="middle" x="73" y="-99.8" font-family="Times,serif" font-size="14.00">SharedModule</text>
</g>
<!-- SharedModule&#45;&gt;TblTaskCategoryModule -->
<g id="edge3" class="edge">
<title>SharedModule&#45;&gt;TblTaskCategoryModule</title>
<path fill="none" stroke="black" d="M73,-122.11C73,-141.34 73,-169 73,-169 73,-169 158.4,-169 158.4,-169"/>
<polygon fill="black" stroke="black" points="158.4,-172.5 168.4,-169 158.4,-165.5 158.4,-172.5"/>
</g>
</g>
</svg>
