<?xml version="1.0" encoding="UTF-8" standalone="no"?>
<!DOCTYPE svg PUBLIC "-//W3C//DTD SVG 1.1//EN"
 "http://www.w3.org/Graphics/SVG/1.1/DTD/svg11.dtd">
<!-- Generated by graphviz version 2.46.0 (20210119.1425)
 -->
<!-- Title: dependencies Pages: 1 -->
<svg width="1110pt" height="211pt"
 viewBox="0.00 0.00 1110.00 211.00" xmlns="http://www.w3.org/2000/svg" xmlns:xlink="http://www.w3.org/1999/xlink">
<g id="graph0" class="graph" transform="scale(1 1) rotate(0) translate(4 207)">
<title>dependencies</title>
<polygon fill="white" stroke="transparent" points="-4,4 -4,-207 1106,-207 1106,4 -4,4"/>
<text text-anchor="start" x="530.01" y="-42.4" font-family="sans-serif" font-weight="bold" font-size="14.00">Legend</text>
<polygon fill="#ffffb3" stroke="transparent" points="317,-10 317,-30 337,-30 337,-10 317,-10"/>
<text text-anchor="start" x="340.63" y="-15.4" font-family="sans-serif" font-size="14.00"> &#160;Declarations</text>
<polygon fill="#8dd3c7" stroke="transparent" points="430,-10 430,-30 450,-30 450,-10 430,-10"/>
<text text-anchor="start" x="453.73" y="-15.4" font-family="sans-serif" font-size="14.00"> &#160;Module</text>
<polygon fill="#80b1d3" stroke="transparent" points="516,-10 516,-30 536,-30 536,-10 516,-10"/>
<text text-anchor="start" x="539.78" y="-15.4" font-family="sans-serif" font-size="14.00"> &#160;Bootstrap</text>
<polygon fill="#fdb462" stroke="transparent" points="613,-10 613,-30 633,-30 633,-10 613,-10"/>
<text text-anchor="start" x="636.67" y="-15.4" font-family="sans-serif" font-size="14.00"> &#160;Providers</text>
<polygon fill="#fb8072" stroke="transparent" points="709,-10 709,-30 729,-30 729,-10 709,-10"/>
<text text-anchor="start" x="732.73" y="-15.4" font-family="sans-serif" font-size="14.00"> &#160;Exports</text>
<g id="clust1" class="cluster">
<title>cluster_LoginModule</title>
<polygon fill="none" stroke="black" stroke-dasharray="1,5" points="8,-70 8,-195 1094,-195 1094,-70 8,-70"/>
</g>
<g id="clust2" class="cluster">
<title>cluster_LoginModule_declarations</title>
<polygon fill="none" stroke="black" points="178,-78 178,-130 1086,-130 1086,-78 178,-78"/>
</g>
<g id="clust8" class="cluster">
<title>cluster_LoginModule_imports</title>
<polygon fill="none" stroke="black" points="16,-78 16,-130 170,-130 170,-78 16,-78"/>
</g>
<!-- EmailTokenLoginComponent -->
<g id="node1" class="node">
<title>EmailTokenLoginComponent</title>
<polygon fill="#ffffb3" stroke="black" points="1077.98,-122 894.02,-122 894.02,-86 1077.98,-86 1077.98,-122"/>
<text text-anchor="middle" x="986" y="-99.8" font-family="Times,serif" font-size="14.00">EmailTokenLoginComponent</text>
</g>
<!-- LoginModule -->
<g id="node6" class="node">
<title>LoginModule</title>
<polygon fill="#8dd3c7" stroke="black" points="619.49,-187 616.49,-191 595.49,-191 592.49,-187 526.51,-187 526.51,-151 619.49,-151 619.49,-187"/>
<text text-anchor="middle" x="573" y="-164.8" font-family="Times,serif" font-size="14.00">LoginModule</text>
</g>
<!-- EmailTokenLoginComponent&#45;&gt;LoginModule -->
<g id="edge1" class="edge">
<title>EmailTokenLoginComponent&#45;&gt;LoginModule</title>
<path fill="none" stroke="black" d="M986,-122.28C986,-143.32 986,-175 986,-175 986,-175 629.57,-175 629.57,-175"/>
<polygon fill="black" stroke="black" points="629.57,-171.5 619.57,-175 629.57,-178.5 629.57,-171.5"/>
</g>
<!-- LoginComponent -->
<g id="node2" class="node">
<title>LoginComponent</title>
<polygon fill="#ffffb3" stroke="black" points="876.28,-122 761.72,-122 761.72,-86 876.28,-86 876.28,-122"/>
<text text-anchor="middle" x="819" y="-99.8" font-family="Times,serif" font-size="14.00">LoginComponent</text>
</g>
<!-- LoginComponent&#45;&gt;LoginModule -->
<g id="edge2" class="edge">
<title>LoginComponent&#45;&gt;LoginModule</title>
<path fill="none" stroke="black" d="M819,-122.02C819,-139.37 819,-163 819,-163 819,-163 629.56,-163 629.56,-163"/>
<polygon fill="black" stroke="black" points="629.56,-159.5 619.56,-163 629.56,-166.5 629.56,-159.5"/>
</g>
<!-- NotRegisteredComponent -->
<g id="node3" class="node">
<title>NotRegisteredComponent</title>
<polygon fill="#ffffb3" stroke="black" points="744.2,-122 581.8,-122 581.8,-86 744.2,-86 744.2,-122"/>
<text text-anchor="middle" x="663" y="-99.8" font-family="Times,serif" font-size="14.00">NotRegisteredComponent</text>
</g>
<!-- NotRegisteredComponent&#45;&gt;LoginModule -->
<g id="edge3" class="edge">
<title>NotRegisteredComponent&#45;&gt;LoginModule</title>
<path fill="none" stroke="black" d="M600.7,-122.11C600.7,-122.11 600.7,-140.99 600.7,-140.99"/>
<polygon fill="black" stroke="black" points="597.2,-140.99 600.7,-150.99 604.2,-140.99 597.2,-140.99"/>
</g>
<!-- SmsOtpLoginComponent -->
<g id="node4" class="node">
<title>SmsOtpLoginComponent</title>
<polygon fill="#ffffb3" stroke="black" points="563.89,-122 404.11,-122 404.11,-86 563.89,-86 563.89,-122"/>
<text text-anchor="middle" x="484" y="-99.8" font-family="Times,serif" font-size="14.00">SmsOtpLoginComponent</text>
</g>
<!-- SmsOtpLoginComponent&#45;&gt;LoginModule -->
<g id="edge4" class="edge">
<title>SmsOtpLoginComponent&#45;&gt;LoginModule</title>
<path fill="none" stroke="black" d="M545.22,-122.11C545.22,-122.11 545.22,-140.99 545.22,-140.99"/>
<polygon fill="black" stroke="black" points="541.72,-140.99 545.22,-150.99 548.72,-140.99 541.72,-140.99"/>
</g>
<!-- UserNamePwdLoginComponent -->
<g id="node5" class="node">
<title>UserNamePwdLoginComponent</title>
<polygon fill="#ffffb3" stroke="black" points="385.52,-122 186.48,-122 186.48,-86 385.52,-86 385.52,-122"/>
<text text-anchor="middle" x="286" y="-99.8" font-family="Times,serif" font-size="14.00">UserNamePwdLoginComponent</text>
</g>
<!-- UserNamePwdLoginComponent&#45;&gt;LoginModule -->
<g id="edge5" class="edge">
<title>UserNamePwdLoginComponent&#45;&gt;LoginModule</title>
<path fill="none" stroke="black" d="M286,-122.02C286,-139.37 286,-163 286,-163 286,-163 516.25,-163 516.25,-163"/>
<polygon fill="black" stroke="black" points="516.25,-166.5 526.25,-163 516.25,-159.5 516.25,-166.5"/>
</g>
<!-- LoginRoutingModule -->
<g id="node7" class="node">
<title>LoginRoutingModule</title>
<polygon fill="#8dd3c7" stroke="black" points="162.11,-122 159.11,-126 138.11,-126 135.11,-122 23.89,-122 23.89,-86 162.11,-86 162.11,-122"/>
<text text-anchor="middle" x="93" y="-99.8" font-family="Times,serif" font-size="14.00">LoginRoutingModule</text>
</g>
<!-- LoginRoutingModule&#45;&gt;LoginModule -->
<g id="edge6" class="edge">
<title>LoginRoutingModule&#45;&gt;LoginModule</title>
<path fill="none" stroke="black" d="M93,-122.28C93,-143.32 93,-175 93,-175 93,-175 516.1,-175 516.1,-175"/>
<polygon fill="black" stroke="black" points="516.1,-178.5 526.1,-175 516.1,-171.5 516.1,-178.5"/>
</g>
</g>
</svg>
