<?xml version="1.0" encoding="UTF-8" standalone="no"?>
<!DOCTYPE svg PUBLIC "-//W3C//DTD SVG 1.1//EN"
 "http://www.w3.org/Graphics/SVG/1.1/DTD/svg11.dtd">
<!-- Generated by graphviz version 2.46.0 (20210119.1425)
 -->
<!-- Title: dependencies Pages: 1 -->
<svg width="514pt" height="211pt"
 viewBox="0.00 0.00 514.00 211.00" xmlns="http://www.w3.org/2000/svg" xmlns:xlink="http://www.w3.org/1999/xlink">
<g id="graph0" class="graph" transform="scale(1 1) rotate(0) translate(4 207)">
<title>dependencies</title>
<polygon fill="white" stroke="transparent" points="-4,4 -4,-207 510,-207 510,4 -4,4"/>
<text text-anchor="start" x="232.01" y="-42.4" font-family="sans-serif" font-weight="bold" font-size="14.00">Legend</text>
<polygon fill="#ffffb3" stroke="transparent" points="19,-10 19,-30 39,-30 39,-10 19,-10"/>
<text text-anchor="start" x="42.63" y="-15.4" font-family="sans-serif" font-size="14.00"> &#160;Declarations</text>
<polygon fill="#8dd3c7" stroke="transparent" points="132,-10 132,-30 152,-30 152,-10 132,-10"/>
<text text-anchor="start" x="155.73" y="-15.4" font-family="sans-serif" font-size="14.00"> &#160;Module</text>
<polygon fill="#80b1d3" stroke="transparent" points="218,-10 218,-30 238,-30 238,-10 218,-10"/>
<text text-anchor="start" x="241.78" y="-15.4" font-family="sans-serif" font-size="14.00"> &#160;Bootstrap</text>
<polygon fill="#fdb462" stroke="transparent" points="315,-10 315,-30 335,-30 335,-10 315,-10"/>
<text text-anchor="start" x="338.67" y="-15.4" font-family="sans-serif" font-size="14.00"> &#160;Providers</text>
<polygon fill="#fb8072" stroke="transparent" points="411,-10 411,-30 431,-30 431,-10 411,-10"/>
<text text-anchor="start" x="434.73" y="-15.4" font-family="sans-serif" font-size="14.00"> &#160;Exports</text>
<g id="clust1" class="cluster">
<title>cluster_TblParamModule</title>
<polygon fill="none" stroke="black" stroke-dasharray="1,5" points="8,-70 8,-195 498,-195 498,-70 8,-70"/>
</g>
<g id="clust2" class="cluster">
<title>cluster_TblParamModule_declarations</title>
<polygon fill="none" stroke="black" points="138,-78 138,-130 490,-130 490,-78 138,-78"/>
</g>
<g id="clust5" class="cluster">
<title>cluster_TblParamModule_imports</title>
<polygon fill="none" stroke="black" points="16,-78 16,-130 130,-130 130,-78 16,-78"/>
</g>
<!-- TblParamEditComponent -->
<g id="node1" class="node">
<title>TblParamEditComponent</title>
<polygon fill="#ffffb3" stroke="black" points="481.87,-122 322.13,-122 322.13,-86 481.87,-86 481.87,-122"/>
<text text-anchor="middle" x="402" y="-99.8" font-family="Times,serif" font-size="14.00">TblParamEditComponent</text>
</g>
<!-- TblParamModule -->
<g id="node3" class="node">
<title>TblParamModule</title>
<polygon fill="#8dd3c7" stroke="black" points="282.26,-187 279.26,-191 258.26,-191 255.26,-187 167.74,-187 167.74,-151 282.26,-151 282.26,-187"/>
<text text-anchor="middle" x="225" y="-164.8" font-family="Times,serif" font-size="14.00">TblParamModule</text>
</g>
<!-- TblParamEditComponent&#45;&gt;TblParamModule -->
<g id="edge1" class="edge">
<title>TblParamEditComponent&#45;&gt;TblParamModule</title>
<path fill="none" stroke="black" d="M402,-122.11C402,-141.34 402,-169 402,-169 402,-169 292.47,-169 292.47,-169"/>
<polygon fill="black" stroke="black" points="292.47,-165.5 282.47,-169 292.47,-172.5 292.47,-165.5"/>
</g>
<!-- TblParamListComponent -->
<g id="node2" class="node">
<title>TblParamListComponent</title>
<polygon fill="#ffffb3" stroke="black" points="304.32,-122 145.68,-122 145.68,-86 304.32,-86 304.32,-122"/>
<text text-anchor="middle" x="225" y="-99.8" font-family="Times,serif" font-size="14.00">TblParamListComponent</text>
</g>
<!-- TblParamListComponent&#45;&gt;TblParamModule -->
<g id="edge2" class="edge">
<title>TblParamListComponent&#45;&gt;TblParamModule</title>
<path fill="none" stroke="black" d="M225,-122.11C225,-122.11 225,-140.99 225,-140.99"/>
<polygon fill="black" stroke="black" points="221.5,-140.99 225,-150.99 228.5,-140.99 221.5,-140.99"/>
</g>
<!-- SharedModule -->
<g id="node4" class="node">
<title>SharedModule</title>
<polygon fill="#8dd3c7" stroke="black" points="122.42,-122 119.42,-126 98.42,-126 95.42,-122 23.58,-122 23.58,-86 122.42,-86 122.42,-122"/>
<text text-anchor="middle" x="73" y="-99.8" font-family="Times,serif" font-size="14.00">SharedModule</text>
</g>
<!-- SharedModule&#45;&gt;TblParamModule -->
<g id="edge3" class="edge">
<title>SharedModule&#45;&gt;TblParamModule</title>
<path fill="none" stroke="black" d="M73,-122.11C73,-141.34 73,-169 73,-169 73,-169 157.54,-169 157.54,-169"/>
<polygon fill="black" stroke="black" points="157.54,-172.5 167.54,-169 157.54,-165.5 157.54,-172.5"/>
</g>
</g>
</svg>
