<?xml version="1.0" encoding="UTF-8" standalone="no"?>
<!DOCTYPE svg PUBLIC "-//W3C//DTD SVG 1.1//EN"
 "http://www.w3.org/Graphics/SVG/1.1/DTD/svg11.dtd">
<!-- Generated by graphviz version 2.46.0 (20210119.1425)
 -->
<!-- Title: dependencies Pages: 1 -->
<svg width="823pt" height="211pt"
 viewBox="0.00 0.00 823.00 211.00" xmlns="http://www.w3.org/2000/svg" xmlns:xlink="http://www.w3.org/1999/xlink">
<g id="graph0" class="graph" transform="scale(1 1) rotate(0) translate(4 207)">
<title>dependencies</title>
<polygon fill="white" stroke="transparent" points="-4,4 -4,-207 819,-207 819,4 -4,4"/>
<text text-anchor="start" x="386.51" y="-42.4" font-family="sans-serif" font-weight="bold" font-size="14.00">Legend</text>
<polygon fill="#ffffb3" stroke="transparent" points="173.5,-10 173.5,-30 193.5,-30 193.5,-10 173.5,-10"/>
<text text-anchor="start" x="197.13" y="-15.4" font-family="sans-serif" font-size="14.00"> &#160;Declarations</text>
<polygon fill="#8dd3c7" stroke="transparent" points="286.5,-10 286.5,-30 306.5,-30 306.5,-10 286.5,-10"/>
<text text-anchor="start" x="310.23" y="-15.4" font-family="sans-serif" font-size="14.00"> &#160;Module</text>
<polygon fill="#80b1d3" stroke="transparent" points="372.5,-10 372.5,-30 392.5,-30 392.5,-10 372.5,-10"/>
<text text-anchor="start" x="396.28" y="-15.4" font-family="sans-serif" font-size="14.00"> &#160;Bootstrap</text>
<polygon fill="#fdb462" stroke="transparent" points="469.5,-10 469.5,-30 489.5,-30 489.5,-10 469.5,-10"/>
<text text-anchor="start" x="493.17" y="-15.4" font-family="sans-serif" font-size="14.00"> &#160;Providers</text>
<polygon fill="#fb8072" stroke="transparent" points="565.5,-10 565.5,-30 585.5,-30 585.5,-10 565.5,-10"/>
<text text-anchor="start" x="589.23" y="-15.4" font-family="sans-serif" font-size="14.00"> &#160;Exports</text>
<g id="clust1" class="cluster">
<title>cluster_MastersModule</title>
<polygon fill="none" stroke="black" stroke-dasharray="1,5" points="8,-70 8,-195 807,-195 807,-70 8,-70"/>
</g>
<g id="clust3" class="cluster">
<title>cluster_MastersModule_imports</title>
<polygon fill="none" stroke="black" points="16,-78 16,-130 799,-130 799,-78 16,-78"/>
</g>
<!-- MastersRoutingModule -->
<g id="node1" class="node">
<title>MastersRoutingModule</title>
<polygon fill="#8dd3c7" stroke="black" points="791.48,-122 788.48,-126 767.48,-126 764.48,-122 642.52,-122 642.52,-86 791.48,-86 791.48,-122"/>
<text text-anchor="middle" x="717" y="-99.8" font-family="Times,serif" font-size="14.00">MastersRoutingModule</text>
</g>
<!-- MastersModule -->
<g id="node6" class="node">
<title>MastersModule</title>
<polygon fill="#8dd3c7" stroke="black" points="431.86,-187 428.86,-191 407.86,-191 404.86,-187 328.14,-187 328.14,-151 431.86,-151 431.86,-187"/>
<text text-anchor="middle" x="380" y="-164.8" font-family="Times,serif" font-size="14.00">MastersModule</text>
</g>
<!-- MastersRoutingModule&#45;&gt;MastersModule -->
<g id="edge1" class="edge">
<title>MastersRoutingModule&#45;&gt;MastersModule</title>
<path fill="none" stroke="black" d="M717,-122.28C717,-143.32 717,-175 717,-175 717,-175 441.92,-175 441.92,-175"/>
<polygon fill="black" stroke="black" points="441.92,-171.5 431.92,-175 441.92,-178.5 441.92,-171.5"/>
</g>
<!-- TblAnnouncementsModule -->
<g id="node2" class="node">
<title>TblAnnouncementsModule</title>
<polygon fill="#8dd3c7" stroke="black" points="624.97,-122 621.97,-126 600.97,-126 597.97,-122 455.03,-122 455.03,-86 624.97,-86 624.97,-122"/>
<text text-anchor="middle" x="540" y="-99.8" font-family="Times,serif" font-size="14.00">TblAnnouncementsModule</text>
</g>
<!-- TblAnnouncementsModule&#45;&gt;MastersModule -->
<g id="edge2" class="edge">
<title>TblAnnouncementsModule&#45;&gt;MastersModule</title>
<path fill="none" stroke="black" d="M540,-122.02C540,-139.37 540,-163 540,-163 540,-163 441.95,-163 441.95,-163"/>
<polygon fill="black" stroke="black" points="441.95,-159.5 431.95,-163 441.95,-166.5 441.95,-159.5"/>
</g>
<!-- TblParamModule -->
<g id="node3" class="node">
<title>TblParamModule</title>
<polygon fill="#8dd3c7" stroke="black" points="437.26,-122 434.26,-126 413.26,-126 410.26,-122 322.74,-122 322.74,-86 437.26,-86 437.26,-122"/>
<text text-anchor="middle" x="380" y="-99.8" font-family="Times,serif" font-size="14.00">TblParamModule</text>
</g>
<!-- TblParamModule&#45;&gt;MastersModule -->
<g id="edge3" class="edge">
<title>TblParamModule&#45;&gt;MastersModule</title>
<path fill="none" stroke="black" d="M380,-122.11C380,-122.11 380,-140.99 380,-140.99"/>
<polygon fill="black" stroke="black" points="376.5,-140.99 380,-150.99 383.5,-140.99 376.5,-140.99"/>
</g>
<!-- TblTaskCategoryModule -->
<g id="node4" class="node">
<title>TblTaskCategoryModule</title>
<polygon fill="#8dd3c7" stroke="black" points="304.52,-122 301.52,-126 280.52,-126 277.52,-122 147.48,-122 147.48,-86 304.52,-86 304.52,-122"/>
<text text-anchor="middle" x="226" y="-99.8" font-family="Times,serif" font-size="14.00">TblTaskCategoryModule</text>
</g>
<!-- TblTaskCategoryModule&#45;&gt;MastersModule -->
<g id="edge4" class="edge">
<title>TblTaskCategoryModule&#45;&gt;MastersModule</title>
<path fill="none" stroke="black" d="M226,-122.02C226,-139.37 226,-163 226,-163 226,-163 317.86,-163 317.86,-163"/>
<polygon fill="black" stroke="black" points="317.86,-166.5 327.86,-163 317.86,-159.5 317.86,-166.5"/>
</g>
<!-- TblUserModule -->
<g id="node5" class="node">
<title>TblUserModule</title>
<polygon fill="#8dd3c7" stroke="black" points="129.92,-122 126.92,-126 105.92,-126 102.92,-122 24.08,-122 24.08,-86 129.92,-86 129.92,-122"/>
<text text-anchor="middle" x="77" y="-99.8" font-family="Times,serif" font-size="14.00">TblUserModule</text>
</g>
<!-- TblUserModule&#45;&gt;MastersModule -->
<g id="edge5" class="edge">
<title>TblUserModule&#45;&gt;MastersModule</title>
<path fill="none" stroke="black" d="M77,-122.28C77,-143.32 77,-175 77,-175 77,-175 317.91,-175 317.91,-175"/>
<polygon fill="black" stroke="black" points="317.91,-178.5 327.91,-175 317.91,-171.5 317.91,-178.5"/>
</g>
</g>
</svg>
