<?xml version="1.0" encoding="UTF-8" standalone="no"?>
<!DOCTYPE svg PUBLIC "-//W3C//DTD SVG 1.1//EN"
 "http://www.w3.org/Graphics/SVG/1.1/DTD/svg11.dtd">
<!-- Generated by graphviz version 2.46.0 (20210119.1425)
 -->
<!-- Title: dependencies Pages: 1 -->
<svg width="2150pt" height="284pt"
 viewBox="0.00 0.00 2150.00 284.00" xmlns="http://www.w3.org/2000/svg" xmlns:xlink="http://www.w3.org/1999/xlink">
<g id="graph0" class="graph" transform="scale(1 1) rotate(0) translate(4 280)">
<title>dependencies</title>
<polygon fill="white" stroke="transparent" points="-4,4 -4,-280 2146,-280 2146,4 -4,4"/>
<text text-anchor="start" x="1050.01" y="-42.4" font-family="sans-serif" font-weight="bold" font-size="14.00">Legend</text>
<polygon fill="#ffffb3" stroke="transparent" points="837,-10 837,-30 857,-30 857,-10 837,-10"/>
<text text-anchor="start" x="860.63" y="-15.4" font-family="sans-serif" font-size="14.00"> &#160;Declarations</text>
<polygon fill="#8dd3c7" stroke="transparent" points="950,-10 950,-30 970,-30 970,-10 950,-10"/>
<text text-anchor="start" x="973.73" y="-15.4" font-family="sans-serif" font-size="14.00"> &#160;Module</text>
<polygon fill="#80b1d3" stroke="transparent" points="1036,-10 1036,-30 1056,-30 1056,-10 1036,-10"/>
<text text-anchor="start" x="1059.78" y="-15.4" font-family="sans-serif" font-size="14.00"> &#160;Bootstrap</text>
<polygon fill="#fdb462" stroke="transparent" points="1133,-10 1133,-30 1153,-30 1153,-10 1133,-10"/>
<text text-anchor="start" x="1156.67" y="-15.4" font-family="sans-serif" font-size="14.00"> &#160;Providers</text>
<polygon fill="#fb8072" stroke="transparent" points="1229,-10 1229,-30 1249,-30 1249,-10 1229,-10"/>
<text text-anchor="start" x="1252.73" y="-15.4" font-family="sans-serif" font-size="14.00"> &#160;Exports</text>
<g id="clust1" class="cluster">
<title>cluster_AppModule</title>
<polygon fill="none" stroke="black" stroke-dasharray="1,5" points="8,-70 8,-268 2134,-268 2134,-70 8,-70"/>
</g>
<g id="clust2" class="cluster">
<title>cluster_AppModule_declarations</title>
<polygon fill="none" stroke="black" points="1664,-78 1664,-130 2126,-130 2126,-78 1664,-78"/>
</g>
<g id="clust9" class="cluster">
<title>cluster_AppModule_providers</title>
<polygon fill="none" stroke="black" points="828,-78 828,-130 1656,-130 1656,-78 828,-78"/>
</g>
<g id="clust6" class="cluster">
<title>cluster_AppModule_imports</title>
<polygon fill="none" stroke="black" points="16,-78 16,-130 820,-130 820,-78 16,-78"/>
</g>
<g id="clust8" class="cluster">
<title>cluster_AppModule_bootstrap</title>
<polygon fill="none" stroke="black" points="863,-208 863,-260 987,-260 987,-208 863,-208"/>
</g>
<!-- AppComponent -->
<g id="node1" class="node">
<title>AppComponent</title>
<polygon fill="#ffffb3" stroke="black" points="2117.94,-122 2012.06,-122 2012.06,-86 2117.94,-86 2117.94,-122"/>
<text text-anchor="middle" x="2065" y="-99.8" font-family="Times,serif" font-size="14.00">AppComponent</text>
</g>
<!-- AppModule -->
<g id="node4" class="node">
<title>AppModule</title>
<polygon fill="#8dd3c7" stroke="black" points="966.66,-187 963.66,-191 942.66,-191 939.66,-187 883.34,-187 883.34,-151 966.66,-151 966.66,-187"/>
<text text-anchor="middle" x="925" y="-164.8" font-family="Times,serif" font-size="14.00">AppModule</text>
</g>
<!-- AppComponent&#45;&gt;AppModule -->
<g id="edge1" class="edge">
<title>AppComponent&#45;&gt;AppModule</title>
<path fill="none" stroke="black" d="M2065,-122.32C2065,-145.66 2065,-183 2065,-183 2065,-183 976.93,-183 976.93,-183"/>
<polygon fill="black" stroke="black" points="976.93,-179.5 966.93,-183 976.93,-186.5 976.93,-179.5"/>
</g>
<!-- NoaccessComponent -->
<g id="node2" class="node">
<title>NoaccessComponent</title>
<polygon fill="#ffffb3" stroke="black" points="1994.19,-122 1859.81,-122 1859.81,-86 1994.19,-86 1994.19,-122"/>
<text text-anchor="middle" x="1927" y="-99.8" font-family="Times,serif" font-size="14.00">NoaccessComponent</text>
</g>
<!-- NoaccessComponent&#45;&gt;AppModule -->
<g id="edge2" class="edge">
<title>NoaccessComponent&#45;&gt;AppModule</title>
<path fill="none" stroke="black" d="M1927,-122.29C1927,-144.21 1927,-178 1927,-178 1927,-178 976.78,-178 976.78,-178"/>
<polygon fill="black" stroke="black" points="976.78,-174.5 966.78,-178 976.78,-181.5 976.78,-174.5"/>
</g>
<!-- UpdateSwToastComponent -->
<g id="node3" class="node">
<title>UpdateSwToastComponent</title>
<polygon fill="#ffffb3" stroke="black" points="1842.25,-122 1671.75,-122 1671.75,-86 1842.25,-86 1842.25,-122"/>
<text text-anchor="middle" x="1757" y="-99.8" font-family="Times,serif" font-size="14.00">UpdateSwToastComponent</text>
</g>
<!-- UpdateSwToastComponent&#45;&gt;AppModule -->
<g id="edge3" class="edge">
<title>UpdateSwToastComponent&#45;&gt;AppModule</title>
<path fill="none" stroke="black" d="M1757,-122.03C1757,-142.77 1757,-174 1757,-174 1757,-174 976.83,-174 976.83,-174"/>
<polygon fill="black" stroke="black" points="976.83,-170.5 966.83,-174 976.83,-177.5 976.83,-170.5"/>
</g>
<!-- AppComponent  -->
<g id="node12" class="node">
<title>AppComponent </title>
<polygon fill="#80b1d3" stroke="black" points="979.44,-252 870.56,-252 870.56,-216 979.44,-216 979.44,-252"/>
<text text-anchor="middle" x="925" y="-229.8" font-family="Times,serif" font-size="14.00">AppComponent </text>
</g>
<!-- AppModule&#45;&gt;AppComponent  -->
<g id="edge11" class="edge">
<title>AppModule&#45;&gt;AppComponent </title>
<path fill="none" stroke="black" stroke-dasharray="1,5" d="M925,-187.11C925,-187.11 925,-205.99 925,-205.99"/>
<polygon fill="black" stroke="black" points="921.5,-205.99 925,-215.99 928.5,-205.99 921.5,-205.99"/>
</g>
<!-- AppRoutingModule -->
<g id="node5" class="node">
<title>AppRoutingModule</title>
<polygon fill="#8dd3c7" stroke="black" points="812.27,-122 809.27,-126 788.27,-126 785.27,-122 683.73,-122 683.73,-86 812.27,-86 812.27,-122"/>
<text text-anchor="middle" x="748" y="-99.8" font-family="Times,serif" font-size="14.00">AppRoutingModule</text>
</g>
<!-- AppRoutingModule&#45;&gt;AppModule -->
<g id="edge4" class="edge">
<title>AppRoutingModule&#45;&gt;AppModule</title>
<path fill="none" stroke="black" d="M748,-122.19C748,-137.18 748,-156 748,-156 748,-156 873.05,-156 873.05,-156"/>
<polygon fill="black" stroke="black" points="873.05,-159.5 883.05,-156 873.05,-152.5 873.05,-159.5"/>
</g>
<!-- CoreModule -->
<g id="node6" class="node">
<title>CoreModule</title>
<polygon fill="#8dd3c7" stroke="black" points="665.26,-122 662.26,-126 641.26,-126 638.26,-122 578.74,-122 578.74,-86 665.26,-86 665.26,-122"/>
<text text-anchor="middle" x="622" y="-99.8" font-family="Times,serif" font-size="14.00">CoreModule</text>
</g>
<!-- CoreModule&#45;&gt;AppModule -->
<g id="edge5" class="edge">
<title>CoreModule&#45;&gt;AppModule</title>
<path fill="none" stroke="black" d="M622,-122.03C622,-138.4 622,-160 622,-160 622,-160 873.19,-160 873.19,-160"/>
<polygon fill="black" stroke="black" points="873.19,-163.5 883.19,-160 873.19,-156.5 873.19,-163.5"/>
</g>
<!-- HomeModule -->
<g id="node7" class="node">
<title>HomeModule</title>
<polygon fill="#8dd3c7" stroke="black" points="560.76,-122 557.76,-126 536.76,-126 533.76,-122 467.24,-122 467.24,-86 560.76,-86 560.76,-122"/>
<text text-anchor="middle" x="514" y="-99.8" font-family="Times,serif" font-size="14.00">HomeModule</text>
</g>
<!-- HomeModule&#45;&gt;AppModule -->
<g id="edge6" class="edge">
<title>HomeModule&#45;&gt;AppModule</title>
<path fill="none" stroke="black" d="M514,-122.3C514,-140.27 514,-165 514,-165 514,-165 873.33,-165 873.33,-165"/>
<polygon fill="black" stroke="black" points="873.33,-168.5 883.33,-165 873.33,-161.5 873.33,-168.5"/>
</g>
<!-- LoginModule -->
<g id="node8" class="node">
<title>LoginModule</title>
<polygon fill="#8dd3c7" stroke="black" points="449.49,-122 446.49,-126 425.49,-126 422.49,-122 356.51,-122 356.51,-86 449.49,-86 449.49,-122"/>
<text text-anchor="middle" x="403" y="-99.8" font-family="Times,serif" font-size="14.00">LoginModule</text>
</g>
<!-- LoginModule&#45;&gt;AppModule -->
<g id="edge7" class="edge">
<title>LoginModule&#45;&gt;AppModule</title>
<path fill="none" stroke="black" d="M403,-122.11C403,-141.34 403,-169 403,-169 403,-169 873.16,-169 873.16,-169"/>
<polygon fill="black" stroke="black" points="873.16,-172.5 883.16,-169 873.16,-165.5 873.16,-172.5"/>
</g>
<!-- PrismModule -->
<g id="node9" class="node">
<title>PrismModule</title>
<polygon fill="#8dd3c7" stroke="black" points="338.22,-122 335.22,-126 314.22,-126 311.22,-122 245.78,-122 245.78,-86 338.22,-86 338.22,-122"/>
<text text-anchor="middle" x="292" y="-99.8" font-family="Times,serif" font-size="14.00">PrismModule</text>
</g>
<!-- PrismModule&#45;&gt;AppModule -->
<g id="edge8" class="edge">
<title>PrismModule&#45;&gt;AppModule</title>
<path fill="none" stroke="black" d="M292,-122.03C292,-142.77 292,-174 292,-174 292,-174 872.98,-174 872.98,-174"/>
<polygon fill="black" stroke="black" points="872.98,-177.5 882.98,-174 872.98,-170.5 872.98,-177.5"/>
</g>
<!-- SharedModule -->
<g id="node10" class="node">
<title>SharedModule</title>
<polygon fill="#8dd3c7" stroke="black" points="228.42,-122 225.42,-126 204.42,-126 201.42,-122 129.58,-122 129.58,-86 228.42,-86 228.42,-122"/>
<text text-anchor="middle" x="179" y="-99.8" font-family="Times,serif" font-size="14.00">SharedModule</text>
</g>
<!-- SharedModule&#45;&gt;AppModule -->
<g id="edge9" class="edge">
<title>SharedModule&#45;&gt;AppModule</title>
<path fill="none" stroke="black" d="M179,-122.29C179,-144.21 179,-178 179,-178 179,-178 873.29,-178 873.29,-178"/>
<polygon fill="black" stroke="black" points="873.29,-181.5 883.29,-178 873.29,-174.5 873.29,-181.5"/>
</g>
<!-- ShellModule -->
<g id="node11" class="node">
<title>ShellModule</title>
<polygon fill="#8dd3c7" stroke="black" points="112.33,-122 109.33,-126 88.33,-126 85.33,-122 23.67,-122 23.67,-86 112.33,-86 112.33,-122"/>
<text text-anchor="middle" x="68" y="-99.8" font-family="Times,serif" font-size="14.00">ShellModule</text>
</g>
<!-- ShellModule&#45;&gt;AppModule -->
<g id="edge10" class="edge">
<title>ShellModule&#45;&gt;AppModule</title>
<path fill="none" stroke="black" d="M68,-122.32C68,-145.66 68,-183 68,-183 68,-183 873.08,-183 873.08,-183"/>
<polygon fill="black" stroke="black" points="873.09,-186.5 883.08,-183 873.08,-179.5 873.09,-186.5"/>
</g>
<!-- CommonService -->
<g id="node13" class="node">
<title>CommonService</title>
<ellipse fill="#fdb462" stroke="black" cx="1572" cy="-104" rx="75.88" ry="18"/>
<text text-anchor="middle" x="1572" y="-99.8" font-family="Times,serif" font-size="14.00">CommonService</text>
</g>
<!-- CommonService&#45;&gt;AppModule -->
<g id="edge12" class="edge">
<title>CommonService&#45;&gt;AppModule</title>
<path fill="none" stroke="black" d="M1572,-122.11C1572,-141.34 1572,-169 1572,-169 1572,-169 976.95,-169 976.95,-169"/>
<polygon fill="black" stroke="black" points="976.95,-165.5 966.95,-169 976.95,-172.5 976.95,-165.5"/>
</g>
<!-- ModalService -->
<g id="node14" class="node">
<title>ModalService</title>
<ellipse fill="#fdb462" stroke="black" cx="1413" cy="-104" rx="65.41" ry="18"/>
<text text-anchor="middle" x="1413" y="-99.8" font-family="Times,serif" font-size="14.00">ModalService</text>
</g>
<!-- ModalService&#45;&gt;AppModule -->
<g id="edge13" class="edge">
<title>ModalService&#45;&gt;AppModule</title>
<path fill="none" stroke="black" d="M1413,-122.3C1413,-140.27 1413,-165 1413,-165 1413,-165 977.03,-165 977.03,-165"/>
<polygon fill="black" stroke="black" points="977.03,-161.5 967.03,-165 977.03,-168.5 977.03,-161.5"/>
</g>
<!-- ToastService -->
<g id="node15" class="node">
<title>ToastService</title>
<ellipse fill="#fdb462" stroke="black" cx="1268" cy="-104" rx="61.39" ry="18"/>
<text text-anchor="middle" x="1268" y="-99.8" font-family="Times,serif" font-size="14.00">ToastService</text>
</g>
<!-- ToastService&#45;&gt;AppModule -->
<g id="edge14" class="edge">
<title>ToastService&#45;&gt;AppModule</title>
<path fill="none" stroke="black" d="M1268,-122.03C1268,-138.4 1268,-160 1268,-160 1268,-160 976.72,-160 976.72,-160"/>
<polygon fill="black" stroke="black" points="976.72,-156.5 966.72,-160 976.72,-163.5 976.72,-156.5"/>
</g>
<!-- TokenInterceptor -->
<g id="node16" class="node">
<title>TokenInterceptor</title>
<ellipse fill="#fdb462" stroke="black" cx="1110" cy="-104" rx="78.13" ry="18"/>
<text text-anchor="middle" x="1110" y="-99.8" font-family="Times,serif" font-size="14.00">TokenInterceptor</text>
</g>
<!-- TokenInterceptor&#45;&gt;AppModule -->
<g id="edge15" class="edge">
<title>TokenInterceptor&#45;&gt;AppModule</title>
<path fill="none" stroke="black" d="M1110,-122.19C1110,-137.18 1110,-156 1110,-156 1110,-156 976.98,-156 976.98,-156"/>
<polygon fill="black" stroke="black" points="976.98,-152.5 966.98,-156 976.98,-159.5 976.98,-152.5"/>
</g>
<!-- WinAuthInterceptor -->
<g id="node17" class="node">
<title>WinAuthInterceptor</title>
<ellipse fill="#fdb462" stroke="black" cx="925" cy="-104" rx="89.17" ry="18"/>
<text text-anchor="middle" x="925" y="-99.8" font-family="Times,serif" font-size="14.00">WinAuthInterceptor</text>
</g>
<!-- WinAuthInterceptor&#45;&gt;AppModule -->
<g id="edge16" class="edge">
<title>WinAuthInterceptor&#45;&gt;AppModule</title>
<path fill="none" stroke="black" d="M925,-122.11C925,-122.11 925,-140.99 925,-140.99"/>
<polygon fill="black" stroke="black" points="921.5,-140.99 925,-150.99 928.5,-140.99 921.5,-140.99"/>
</g>
</g>
</svg>
