<?xml version="1.0" encoding="UTF-8" standalone="no"?>
<!DOCTYPE svg PUBLIC "-//W3C//DTD SVG 1.1//EN"
 "http://www.w3.org/Graphics/SVG/1.1/DTD/svg11.dtd">
<!-- Generated by graphviz version 2.46.0 (20210119.1425)
 -->
<!-- Title: dependencies Pages: 1 -->
<svg width="927pt" height="211pt"
 viewBox="0.00 0.00 927.00 211.00" xmlns="http://www.w3.org/2000/svg" xmlns:xlink="http://www.w3.org/1999/xlink">
<g id="graph0" class="graph" transform="scale(1 1) rotate(0) translate(4 207)">
<title>dependencies</title>
<polygon fill="white" stroke="transparent" points="-4,4 -4,-207 923,-207 923,4 -4,4"/>
<text text-anchor="start" x="438.51" y="-42.4" font-family="sans-serif" font-weight="bold" font-size="14.00">Legend</text>
<polygon fill="#ffffb3" stroke="transparent" points="225.5,-10 225.5,-30 245.5,-30 245.5,-10 225.5,-10"/>
<text text-anchor="start" x="249.13" y="-15.4" font-family="sans-serif" font-size="14.00"> &#160;Declarations</text>
<polygon fill="#8dd3c7" stroke="transparent" points="338.5,-10 338.5,-30 358.5,-30 358.5,-10 338.5,-10"/>
<text text-anchor="start" x="362.23" y="-15.4" font-family="sans-serif" font-size="14.00"> &#160;Module</text>
<polygon fill="#80b1d3" stroke="transparent" points="424.5,-10 424.5,-30 444.5,-30 444.5,-10 424.5,-10"/>
<text text-anchor="start" x="448.28" y="-15.4" font-family="sans-serif" font-size="14.00"> &#160;Bootstrap</text>
<polygon fill="#fdb462" stroke="transparent" points="521.5,-10 521.5,-30 541.5,-30 541.5,-10 521.5,-10"/>
<text text-anchor="start" x="545.17" y="-15.4" font-family="sans-serif" font-size="14.00"> &#160;Providers</text>
<polygon fill="#fb8072" stroke="transparent" points="617.5,-10 617.5,-30 637.5,-30 637.5,-10 617.5,-10"/>
<text text-anchor="start" x="641.23" y="-15.4" font-family="sans-serif" font-size="14.00"> &#160;Exports</text>
<g id="clust1" class="cluster">
<title>cluster_AppAdminModule</title>
<polygon fill="none" stroke="black" stroke-dasharray="1,5" points="8,-70 8,-195 911,-195 911,-70 8,-70"/>
</g>
<g id="clust2" class="cluster">
<title>cluster_AppAdminModule_declarations</title>
<polygon fill="none" stroke="black" points="324,-78 324,-130 903,-130 903,-78 324,-78"/>
</g>
<g id="clust7" class="cluster">
<title>cluster_AppAdminModule_imports</title>
<polygon fill="none" stroke="black" points="16,-78 16,-130 316,-130 316,-78 16,-78"/>
</g>
<!-- RolesComponent -->
<g id="node1" class="node">
<title>RolesComponent</title>
<polygon fill="#ffffb3" stroke="black" points="894.72,-122 781.28,-122 781.28,-86 894.72,-86 894.72,-122"/>
<text text-anchor="middle" x="838" y="-99.8" font-family="Times,serif" font-size="14.00">RolesComponent</text>
</g>
<!-- AppAdminModule -->
<g id="node5" class="node">
<title>AppAdminModule</title>
<polygon fill="#8dd3c7" stroke="black" points="522.05,-187 519.05,-191 498.05,-191 495.05,-187 399.95,-187 399.95,-151 522.05,-151 522.05,-187"/>
<text text-anchor="middle" x="461" y="-164.8" font-family="Times,serif" font-size="14.00">AppAdminModule</text>
</g>
<!-- RolesComponent&#45;&gt;AppAdminModule -->
<g id="edge1" class="edge">
<title>RolesComponent&#45;&gt;AppAdminModule</title>
<path fill="none" stroke="black" d="M838,-122.28C838,-143.32 838,-175 838,-175 838,-175 532.41,-175 532.41,-175"/>
<polygon fill="black" stroke="black" points="532.41,-171.5 522.41,-175 532.41,-178.5 532.41,-171.5"/>
</g>
<!-- RolesFormComponent -->
<g id="node2" class="node">
<title>RolesFormComponent</title>
<polygon fill="#ffffb3" stroke="black" points="763.55,-122 620.45,-122 620.45,-86 763.55,-86 763.55,-122"/>
<text text-anchor="middle" x="692" y="-99.8" font-family="Times,serif" font-size="14.00">RolesFormComponent</text>
</g>
<!-- RolesFormComponent&#45;&gt;AppAdminModule -->
<g id="edge2" class="edge">
<title>RolesFormComponent&#45;&gt;AppAdminModule</title>
<path fill="none" stroke="black" d="M692,-122.02C692,-139.37 692,-163 692,-163 692,-163 532.3,-163 532.3,-163"/>
<polygon fill="black" stroke="black" points="532.3,-159.5 522.3,-163 532.3,-166.5 532.3,-159.5"/>
</g>
<!-- UserFormComponent -->
<g id="node3" class="node">
<title>UserFormComponent</title>
<polygon fill="#ffffb3" stroke="black" points="602.09,-122 463.91,-122 463.91,-86 602.09,-86 602.09,-122"/>
<text text-anchor="middle" x="533" y="-99.8" font-family="Times,serif" font-size="14.00">UserFormComponent</text>
</g>
<!-- UserFormComponent&#45;&gt;AppAdminModule -->
<g id="edge3" class="edge">
<title>UserFormComponent&#45;&gt;AppAdminModule</title>
<path fill="none" stroke="black" d="M493.11,-122.11C493.11,-122.11 493.11,-140.99 493.11,-140.99"/>
<polygon fill="black" stroke="black" points="489.61,-140.99 493.11,-150.99 496.61,-140.99 489.61,-140.99"/>
</g>
<!-- UsersComponent -->
<g id="node4" class="node">
<title>UsersComponent</title>
<polygon fill="#ffffb3" stroke="black" points="445.7,-122 332.3,-122 332.3,-86 445.7,-86 445.7,-122"/>
<text text-anchor="middle" x="389" y="-99.8" font-family="Times,serif" font-size="14.00">UsersComponent</text>
</g>
<!-- UsersComponent&#45;&gt;AppAdminModule -->
<g id="edge4" class="edge">
<title>UsersComponent&#45;&gt;AppAdminModule</title>
<path fill="none" stroke="black" d="M422.66,-122.11C422.66,-122.11 422.66,-140.99 422.66,-140.99"/>
<polygon fill="black" stroke="black" points="419.16,-140.99 422.66,-150.99 426.16,-140.99 419.16,-140.99"/>
</g>
<!-- AppAdminRoutingModule -->
<g id="node6" class="node">
<title>AppAdminRoutingModule</title>
<polygon fill="#8dd3c7" stroke="black" points="307.66,-122 304.66,-126 283.66,-126 280.66,-122 140.34,-122 140.34,-86 307.66,-86 307.66,-122"/>
<text text-anchor="middle" x="224" y="-99.8" font-family="Times,serif" font-size="14.00">AppAdminRoutingModule</text>
</g>
<!-- AppAdminRoutingModule&#45;&gt;AppAdminModule -->
<g id="edge5" class="edge">
<title>AppAdminRoutingModule&#45;&gt;AppAdminModule</title>
<path fill="none" stroke="black" d="M224,-122.02C224,-139.37 224,-163 224,-163 224,-163 389.66,-163 389.66,-163"/>
<polygon fill="black" stroke="black" points="389.66,-166.5 399.66,-163 389.66,-159.5 389.66,-166.5"/>
</g>
<!-- SharedModule -->
<g id="node7" class="node">
<title>SharedModule</title>
<polygon fill="#8dd3c7" stroke="black" points="122.42,-122 119.42,-126 98.42,-126 95.42,-122 23.58,-122 23.58,-86 122.42,-86 122.42,-122"/>
<text text-anchor="middle" x="73" y="-99.8" font-family="Times,serif" font-size="14.00">SharedModule</text>
</g>
<!-- SharedModule&#45;&gt;AppAdminModule -->
<g id="edge6" class="edge">
<title>SharedModule&#45;&gt;AppAdminModule</title>
<path fill="none" stroke="black" d="M73,-122.28C73,-143.32 73,-175 73,-175 73,-175 389.95,-175 389.95,-175"/>
<polygon fill="black" stroke="black" points="389.95,-178.5 399.95,-175 389.95,-171.5 389.95,-178.5"/>
</g>
</g>
</svg>
