<?xml version="1.0" encoding="UTF-8" standalone="no"?>
<!DOCTYPE svg PUBLIC "-//W3C//DTD SVG 1.1//EN"
 "http://www.w3.org/Graphics/SVG/1.1/DTD/svg11.dtd">
<!-- Generated by graphviz version 2.46.0 (20210119.1425)
 -->
<!-- Title: dependencies Pages: 1 -->
<svg width="1203pt" height="284pt"
 viewBox="0.00 0.00 1203.00 284.00" xmlns="http://www.w3.org/2000/svg" xmlns:xlink="http://www.w3.org/1999/xlink">
<g id="graph0" class="graph" transform="scale(1 1) rotate(0) translate(4 280)">
<title>dependencies</title>
<polygon fill="white" stroke="transparent" points="-4,4 -4,-280 1199,-280 1199,4 -4,4"/>
<text text-anchor="start" x="576.51" y="-42.4" font-family="sans-serif" font-weight="bold" font-size="14.00">Legend</text>
<polygon fill="#ffffb3" stroke="transparent" points="363.5,-10 363.5,-30 383.5,-30 383.5,-10 363.5,-10"/>
<text text-anchor="start" x="387.13" y="-15.4" font-family="sans-serif" font-size="14.00"> &#160;Declarations</text>
<polygon fill="#8dd3c7" stroke="transparent" points="476.5,-10 476.5,-30 496.5,-30 496.5,-10 476.5,-10"/>
<text text-anchor="start" x="500.23" y="-15.4" font-family="sans-serif" font-size="14.00"> &#160;Module</text>
<polygon fill="#80b1d3" stroke="transparent" points="562.5,-10 562.5,-30 582.5,-30 582.5,-10 562.5,-10"/>
<text text-anchor="start" x="586.28" y="-15.4" font-family="sans-serif" font-size="14.00"> &#160;Bootstrap</text>
<polygon fill="#fdb462" stroke="transparent" points="659.5,-10 659.5,-30 679.5,-30 679.5,-10 659.5,-10"/>
<text text-anchor="start" x="683.17" y="-15.4" font-family="sans-serif" font-size="14.00"> &#160;Providers</text>
<polygon fill="#fb8072" stroke="transparent" points="755.5,-10 755.5,-30 775.5,-30 775.5,-10 755.5,-10"/>
<text text-anchor="start" x="779.23" y="-15.4" font-family="sans-serif" font-size="14.00"> &#160;Exports</text>
<g id="clust1" class="cluster">
<title>cluster_SharedCompsModule</title>
<polygon fill="none" stroke="black" stroke-dasharray="1,5" points="8,-70 8,-268 1187,-268 1187,-70 8,-70"/>
</g>
<g id="clust2" class="cluster">
<title>cluster_SharedCompsModule_declarations</title>
<polygon fill="none" stroke="black" points="138,-78 138,-130 1179,-130 1179,-78 138,-78"/>
</g>
<g id="clust9" class="cluster">
<title>cluster_SharedCompsModule_exports</title>
<polygon fill="none" stroke="black" points="131,-208 131,-260 903,-260 903,-208 131,-208"/>
</g>
<g id="clust8" class="cluster">
<title>cluster_SharedCompsModule_imports</title>
<polygon fill="none" stroke="black" points="16,-78 16,-130 130,-130 130,-78 16,-78"/>
</g>
<!-- DataTableShellNDynamicFiltersComponent -->
<g id="node1" class="node">
<title>DataTableShellNDynamicFiltersComponent</title>
<polygon fill="#ffffb3" stroke="black" points="1170.61,-122 905.39,-122 905.39,-86 1170.61,-86 1170.61,-122"/>
<text text-anchor="middle" x="1038" y="-99.8" font-family="Times,serif" font-size="14.00">DataTableShellNDynamicFiltersComponent</text>
</g>
<!-- SharedCompsModule -->
<g id="node6" class="node">
<title>SharedCompsModule</title>
<polygon fill="#8dd3c7" stroke="black" points="584.09,-187 581.09,-191 560.09,-191 557.09,-187 445.91,-187 445.91,-151 584.09,-151 584.09,-187"/>
<text text-anchor="middle" x="515" y="-164.8" font-family="Times,serif" font-size="14.00">SharedCompsModule</text>
</g>
<!-- DataTableShellNDynamicFiltersComponent&#45;&gt;SharedCompsModule -->
<g id="edge1" class="edge">
<title>DataTableShellNDynamicFiltersComponent&#45;&gt;SharedCompsModule</title>
<path fill="none" stroke="black" d="M1038,-122.11C1038,-141.34 1038,-169 1038,-169 1038,-169 594.18,-169 594.18,-169"/>
<polygon fill="black" stroke="black" points="594.18,-165.5 584.18,-169 594.18,-172.5 594.18,-165.5"/>
</g>
<!-- ReportDownloadComponent -->
<g id="node2" class="node">
<title>ReportDownloadComponent</title>
<polygon fill="#ffffb3" stroke="black" points="886.75,-122 709.25,-122 709.25,-86 886.75,-86 886.75,-122"/>
<text text-anchor="middle" x="798" y="-99.8" font-family="Times,serif" font-size="14.00">ReportDownloadComponent</text>
</g>
<!-- ReportDownloadComponent&#45;&gt;SharedCompsModule -->
<g id="edge2" class="edge">
<title>ReportDownloadComponent&#45;&gt;SharedCompsModule</title>
<path fill="none" stroke="black" d="M829.04,-122.03C829.04,-138.4 829.04,-160 829.04,-160 829.04,-160 594.31,-160 594.31,-160"/>
<polygon fill="black" stroke="black" points="594.31,-156.5 584.31,-160 594.31,-163.5 594.31,-156.5"/>
</g>
<!-- StudyFilterShellComponent -->
<g id="node3" class="node">
<title>StudyFilterShellComponent</title>
<polygon fill="#ffffb3" stroke="black" points="691.61,-122 518.39,-122 518.39,-86 691.61,-86 691.61,-122"/>
<text text-anchor="middle" x="605" y="-99.8" font-family="Times,serif" font-size="14.00">StudyFilterShellComponent</text>
</g>
<!-- StudyFilterShellComponent&#45;&gt;SharedCompsModule -->
<g id="edge3" class="edge">
<title>StudyFilterShellComponent&#45;&gt;SharedCompsModule</title>
<path fill="none" stroke="black" d="M551.25,-122.11C551.25,-122.11 551.25,-140.99 551.25,-140.99"/>
<polygon fill="black" stroke="black" points="547.75,-140.99 551.25,-150.99 554.75,-140.99 547.75,-140.99"/>
</g>
<!-- StudyFiltersComponent -->
<g id="node4" class="node">
<title>StudyFiltersComponent</title>
<polygon fill="#ffffb3" stroke="black" points="500.78,-122 351.22,-122 351.22,-86 500.78,-86 500.78,-122"/>
<text text-anchor="middle" x="426" y="-99.8" font-family="Times,serif" font-size="14.00">StudyFiltersComponent</text>
</g>
<!-- StudyFiltersComponent&#45;&gt;SharedCompsModule -->
<g id="edge4" class="edge">
<title>StudyFiltersComponent&#45;&gt;SharedCompsModule</title>
<path fill="none" stroke="black" d="M473.42,-122.11C473.42,-122.11 473.42,-140.99 473.42,-140.99"/>
<polygon fill="black" stroke="black" points="469.92,-140.99 473.42,-150.99 476.92,-140.99 469.92,-140.99"/>
</g>
<!-- StudyReviewFilterComponent -->
<g id="node5" class="node">
<title>StudyReviewFilterComponent</title>
<polygon fill="#ffffb3" stroke="black" points="333.6,-122 146.4,-122 146.4,-86 333.6,-86 333.6,-122"/>
<text text-anchor="middle" x="240" y="-99.8" font-family="Times,serif" font-size="14.00">StudyReviewFilterComponent</text>
</g>
<!-- StudyReviewFilterComponent&#45;&gt;SharedCompsModule -->
<g id="edge5" class="edge">
<title>StudyReviewFilterComponent&#45;&gt;SharedCompsModule</title>
<path fill="none" stroke="black" d="M268.35,-122.03C268.35,-138.4 268.35,-160 268.35,-160 268.35,-160 435.64,-160 435.64,-160"/>
<polygon fill="black" stroke="black" points="435.64,-163.5 445.64,-160 435.64,-156.5 435.64,-163.5"/>
</g>
<!-- ReportDownloadComponent  -->
<g id="node8" class="node">
<title>ReportDownloadComponent </title>
<polygon fill="#fb8072" stroke="black" points="894.75,-252 713.25,-252 713.25,-216 894.75,-216 894.75,-252"/>
<text text-anchor="middle" x="804" y="-229.8" font-family="Times,serif" font-size="14.00">ReportDownloadComponent </text>
</g>
<!-- SharedCompsModule&#45;&gt;ReportDownloadComponent  -->
<g id="edge7" class="edge">
<title>SharedCompsModule&#45;&gt;ReportDownloadComponent </title>
<path fill="none" stroke="black" stroke-dasharray="5,2" d="M584.33,-178C660.21,-178 771.21,-178 771.21,-178 771.21,-178 771.21,-205.97 771.21,-205.97"/>
<polygon fill="black" stroke="black" points="767.71,-205.97 771.21,-215.97 774.71,-205.97 767.71,-205.97"/>
</g>
<!-- StudyFilterShellComponent  -->
<g id="node9" class="node">
<title>StudyFilterShellComponent </title>
<polygon fill="#fb8072" stroke="black" points="695.11,-252 518.89,-252 518.89,-216 695.11,-216 695.11,-252"/>
<text text-anchor="middle" x="607" y="-229.8" font-family="Times,serif" font-size="14.00">StudyFilterShellComponent </text>
</g>
<!-- SharedCompsModule&#45;&gt;StudyFilterShellComponent  -->
<g id="edge8" class="edge">
<title>SharedCompsModule&#45;&gt;StudyFilterShellComponent </title>
<path fill="none" stroke="black" stroke-dasharray="5,2" d="M551.37,-187.11C551.37,-187.11 551.37,-205.99 551.37,-205.99"/>
<polygon fill="black" stroke="black" points="547.87,-205.99 551.37,-215.99 554.87,-205.99 547.87,-205.99"/>
</g>
<!-- StudyFiltersComponent  -->
<g id="node10" class="node">
<title>StudyFiltersComponent </title>
<polygon fill="#fb8072" stroke="black" points="500.78,-252 347.22,-252 347.22,-216 500.78,-216 500.78,-252"/>
<text text-anchor="middle" x="424" y="-229.8" font-family="Times,serif" font-size="14.00">StudyFiltersComponent </text>
</g>
<!-- SharedCompsModule&#45;&gt;StudyFiltersComponent  -->
<g id="edge9" class="edge">
<title>SharedCompsModule&#45;&gt;StudyFiltersComponent </title>
<path fill="none" stroke="black" stroke-dasharray="5,2" d="M473.3,-187.11C473.3,-187.11 473.3,-205.99 473.3,-205.99"/>
<polygon fill="black" stroke="black" points="469.8,-205.99 473.3,-215.99 476.8,-205.99 469.8,-205.99"/>
</g>
<!-- StudyReviewFilterComponent  -->
<g id="node11" class="node">
<title>StudyReviewFilterComponent </title>
<polygon fill="#fb8072" stroke="black" points="329.1,-252 138.9,-252 138.9,-216 329.1,-216 329.1,-252"/>
<text text-anchor="middle" x="234" y="-229.8" font-family="Times,serif" font-size="14.00">StudyReviewFilterComponent </text>
</g>
<!-- SharedCompsModule&#45;&gt;StudyReviewFilterComponent  -->
<g id="edge10" class="edge">
<title>SharedCompsModule&#45;&gt;StudyReviewFilterComponent </title>
<path fill="none" stroke="black" stroke-dasharray="5,2" d="M445.59,-178C354.86,-178 207.4,-178 207.4,-178 207.4,-178 207.4,-205.97 207.4,-205.97"/>
<polygon fill="black" stroke="black" points="203.9,-205.97 207.4,-215.97 210.9,-205.97 203.9,-205.97"/>
</g>
<!-- SharedModule -->
<g id="node7" class="node">
<title>SharedModule</title>
<polygon fill="#8dd3c7" stroke="black" points="122.42,-122 119.42,-126 98.42,-126 95.42,-122 23.58,-122 23.58,-86 122.42,-86 122.42,-122"/>
<text text-anchor="middle" x="73" y="-99.8" font-family="Times,serif" font-size="14.00">SharedModule</text>
</g>
<!-- SharedModule&#45;&gt;SharedCompsModule -->
<g id="edge6" class="edge">
<title>SharedModule&#45;&gt;SharedCompsModule</title>
<path fill="none" stroke="black" d="M73,-122.11C73,-141.34 73,-169 73,-169 73,-169 435.94,-169 435.94,-169"/>
<polygon fill="black" stroke="black" points="435.94,-172.5 445.94,-169 435.94,-165.5 435.94,-172.5"/>
</g>
</g>
</svg>
