<?xml version="1.0" encoding="UTF-8" standalone="no"?>
<!DOCTYPE svg PUBLIC "-//W3C//DTD SVG 1.1//EN"
 "http://www.w3.org/Graphics/SVG/1.1/DTD/svg11.dtd">
<!-- Generated by graphviz version 2.46.0 (20210119.1425)
 -->
<!-- Title: dependencies Pages: 1 -->
<svg width="504pt" height="211pt"
 viewBox="0.00 0.00 504.00 211.00" xmlns="http://www.w3.org/2000/svg" xmlns:xlink="http://www.w3.org/1999/xlink">
<g id="graph0" class="graph" transform="scale(1 1) rotate(0) translate(4 207)">
<title>dependencies</title>
<polygon fill="white" stroke="transparent" points="-4,4 -4,-207 500,-207 500,4 -4,4"/>
<text text-anchor="start" x="227.01" y="-42.4" font-family="sans-serif" font-weight="bold" font-size="14.00">Legend</text>
<polygon fill="#ffffb3" stroke="transparent" points="14,-10 14,-30 34,-30 34,-10 14,-10"/>
<text text-anchor="start" x="37.63" y="-15.4" font-family="sans-serif" font-size="14.00"> &#160;Declarations</text>
<polygon fill="#8dd3c7" stroke="transparent" points="127,-10 127,-30 147,-30 147,-10 127,-10"/>
<text text-anchor="start" x="150.73" y="-15.4" font-family="sans-serif" font-size="14.00"> &#160;Module</text>
<polygon fill="#80b1d3" stroke="transparent" points="213,-10 213,-30 233,-30 233,-10 213,-10"/>
<text text-anchor="start" x="236.78" y="-15.4" font-family="sans-serif" font-size="14.00"> &#160;Bootstrap</text>
<polygon fill="#fdb462" stroke="transparent" points="310,-10 310,-30 330,-30 330,-10 310,-10"/>
<text text-anchor="start" x="333.67" y="-15.4" font-family="sans-serif" font-size="14.00"> &#160;Providers</text>
<polygon fill="#fb8072" stroke="transparent" points="406,-10 406,-30 426,-30 426,-10 406,-10"/>
<text text-anchor="start" x="429.73" y="-15.4" font-family="sans-serif" font-size="14.00"> &#160;Exports</text>
<g id="clust1" class="cluster">
<title>cluster_StudyGroupModule</title>
<polygon fill="none" stroke="black" stroke-dasharray="1,5" points="80.5,-70 80.5,-195 415.5,-195 415.5,-70 80.5,-70"/>
</g>
<g id="clust3" class="cluster">
<title>cluster_StudyGroupModule_imports</title>
<polygon fill="none" stroke="black" points="88.5,-78 88.5,-130 407.5,-130 407.5,-78 88.5,-78"/>
</g>
<!-- StudyGroupRoutingModule -->
<g id="node1" class="node">
<title>StudyGroupRoutingModule</title>
<polygon fill="#8dd3c7" stroke="black" points="399.11,-122 396.11,-126 375.11,-126 372.11,-122 225.89,-122 225.89,-86 399.11,-86 399.11,-122"/>
<text text-anchor="middle" x="312.5" y="-99.8" font-family="Times,serif" font-size="14.00">StudyGroupRoutingModule</text>
</g>
<!-- StudyGroupModule -->
<g id="node3" class="node">
<title>StudyGroupModule</title>
<polygon fill="#8dd3c7" stroke="black" points="296.49,-187 293.49,-191 272.49,-191 269.49,-187 168.51,-187 168.51,-151 296.49,-151 296.49,-187"/>
<text text-anchor="middle" x="232.5" y="-164.8" font-family="Times,serif" font-size="14.00">StudyGroupModule</text>
</g>
<!-- StudyGroupRoutingModule&#45;&gt;StudyGroupModule -->
<g id="edge1" class="edge">
<title>StudyGroupRoutingModule&#45;&gt;StudyGroupModule</title>
<path fill="none" stroke="black" d="M261.22,-122.11C261.22,-122.11 261.22,-140.99 261.22,-140.99"/>
<polygon fill="black" stroke="black" points="257.72,-140.99 261.22,-150.99 264.72,-140.99 257.72,-140.99"/>
</g>
<!-- TblStudyModule -->
<g id="node2" class="node">
<title>TblStudyModule</title>
<polygon fill="#8dd3c7" stroke="black" points="208.17,-122 205.17,-126 184.17,-126 181.17,-122 96.83,-122 96.83,-86 208.17,-86 208.17,-122"/>
<text text-anchor="middle" x="152.5" y="-99.8" font-family="Times,serif" font-size="14.00">TblStudyModule</text>
</g>
<!-- TblStudyModule&#45;&gt;StudyGroupModule -->
<g id="edge2" class="edge">
<title>TblStudyModule&#45;&gt;StudyGroupModule</title>
<path fill="none" stroke="black" d="M188.42,-122.11C188.42,-122.11 188.42,-140.99 188.42,-140.99"/>
<polygon fill="black" stroke="black" points="184.92,-140.99 188.42,-150.99 191.92,-140.99 184.92,-140.99"/>
</g>
</g>
</svg>
