<?xml version="1.0" encoding="UTF-8" standalone="no"?>
<!DOCTYPE svg PUBLIC "-//W3C//DTD SVG 1.1//EN"
 "http://www.w3.org/Graphics/SVG/1.1/DTD/svg11.dtd">
<!-- Generated by graphviz version 2.46.0 (20210119.1425)
 -->
<!-- Title: dependencies Pages: 1 -->
<svg width="504pt" height="211pt"
 viewBox="0.00 0.00 504.00 211.00" xmlns="http://www.w3.org/2000/svg" xmlns:xlink="http://www.w3.org/1999/xlink">
<g id="graph0" class="graph" transform="scale(1 1) rotate(0) translate(4 207)">
<title>dependencies</title>
<polygon fill="white" stroke="transparent" points="-4,4 -4,-207 500,-207 500,4 -4,4"/>
<text text-anchor="start" x="227.01" y="-42.4" font-family="sans-serif" font-weight="bold" font-size="14.00">Legend</text>
<polygon fill="#ffffb3" stroke="transparent" points="14,-10 14,-30 34,-30 34,-10 14,-10"/>
<text text-anchor="start" x="37.63" y="-15.4" font-family="sans-serif" font-size="14.00"> &#160;Declarations</text>
<polygon fill="#8dd3c7" stroke="transparent" points="127,-10 127,-30 147,-30 147,-10 127,-10"/>
<text text-anchor="start" x="150.73" y="-15.4" font-family="sans-serif" font-size="14.00"> &#160;Module</text>
<polygon fill="#80b1d3" stroke="transparent" points="213,-10 213,-30 233,-30 233,-10 213,-10"/>
<text text-anchor="start" x="236.78" y="-15.4" font-family="sans-serif" font-size="14.00"> &#160;Bootstrap</text>
<polygon fill="#fdb462" stroke="transparent" points="310,-10 310,-30 330,-30 330,-10 310,-10"/>
<text text-anchor="start" x="333.67" y="-15.4" font-family="sans-serif" font-size="14.00"> &#160;Providers</text>
<polygon fill="#fb8072" stroke="transparent" points="406,-10 406,-30 426,-30 426,-10 406,-10"/>
<text text-anchor="start" x="429.73" y="-15.4" font-family="sans-serif" font-size="14.00"> &#160;Exports</text>
<g id="clust1" class="cluster">
<title>cluster_TblUserModule</title>
<polygon fill="none" stroke="black" stroke-dasharray="1,5" points="12.5,-70 12.5,-195 483.5,-195 483.5,-70 12.5,-70"/>
</g>
<g id="clust5" class="cluster">
<title>cluster_TblUserModule_imports</title>
<polygon fill="none" stroke="black" points="361.5,-78 361.5,-130 475.5,-130 475.5,-78 361.5,-78"/>
</g>
<g id="clust2" class="cluster">
<title>cluster_TblUserModule_declarations</title>
<polygon fill="none" stroke="black" points="20.5,-78 20.5,-130 353.5,-130 353.5,-78 20.5,-78"/>
</g>
<!-- TblUserEditComponent -->
<g id="node1" class="node">
<title>TblUserEditComponent</title>
<polygon fill="#ffffb3" stroke="black" points="345.54,-122 195.46,-122 195.46,-86 345.54,-86 345.54,-122"/>
<text text-anchor="middle" x="270.5" y="-99.8" font-family="Times,serif" font-size="14.00">TblUserEditComponent</text>
</g>
<!-- TblUserModule -->
<g id="node3" class="node">
<title>TblUserModule</title>
<polygon fill="#8dd3c7" stroke="black" points="323.42,-187 320.42,-191 299.42,-191 296.42,-187 217.58,-187 217.58,-151 323.42,-151 323.42,-187"/>
<text text-anchor="middle" x="270.5" y="-164.8" font-family="Times,serif" font-size="14.00">TblUserModule</text>
</g>
<!-- TblUserEditComponent&#45;&gt;TblUserModule -->
<g id="edge1" class="edge">
<title>TblUserEditComponent&#45;&gt;TblUserModule</title>
<path fill="none" stroke="black" d="M270.5,-122.11C270.5,-122.11 270.5,-140.99 270.5,-140.99"/>
<polygon fill="black" stroke="black" points="267,-140.99 270.5,-150.99 274,-140.99 267,-140.99"/>
</g>
<!-- TblUserListComponent -->
<g id="node2" class="node">
<title>TblUserListComponent</title>
<polygon fill="#ffffb3" stroke="black" points="176.98,-122 28.02,-122 28.02,-86 176.98,-86 176.98,-122"/>
<text text-anchor="middle" x="102.5" y="-99.8" font-family="Times,serif" font-size="14.00">TblUserListComponent</text>
</g>
<!-- TblUserListComponent&#45;&gt;TblUserModule -->
<g id="edge2" class="edge">
<title>TblUserListComponent&#45;&gt;TblUserModule</title>
<path fill="none" stroke="black" d="M102.5,-122.11C102.5,-141.34 102.5,-169 102.5,-169 102.5,-169 207.34,-169 207.34,-169"/>
<polygon fill="black" stroke="black" points="207.34,-172.5 217.34,-169 207.34,-165.5 207.34,-172.5"/>
</g>
<!-- SharedModule -->
<g id="node4" class="node">
<title>SharedModule</title>
<polygon fill="#8dd3c7" stroke="black" points="467.92,-122 464.92,-126 443.92,-126 440.92,-122 369.08,-122 369.08,-86 467.92,-86 467.92,-122"/>
<text text-anchor="middle" x="418.5" y="-99.8" font-family="Times,serif" font-size="14.00">SharedModule</text>
</g>
<!-- SharedModule&#45;&gt;TblUserModule -->
<g id="edge3" class="edge">
<title>SharedModule&#45;&gt;TblUserModule</title>
<path fill="none" stroke="black" d="M418.5,-122.11C418.5,-141.34 418.5,-169 418.5,-169 418.5,-169 333.51,-169 333.51,-169"/>
<polygon fill="black" stroke="black" points="333.51,-165.5 323.51,-169 333.51,-172.5 333.51,-165.5"/>
</g>
</g>
</svg>
